<svg id="390bda19-a7d2-4807-bf84-0b71cfc4032d" data-name="Layer 1" xmlns="http://www.w3.org/2000/svg" xmlns:xlink="http://www.w3.org/1999/xlink" width="874.11" height="733.63" viewBox="0 0 874.11 733.63" style=""><defs><linearGradient id="cc82a564-ea96-4f3a-b817-d04de3d3185f" x1="875.04" y1="475.49" x2="303.77" y2="474.73" gradientTransform="matrix(0, 1, -1.02, 0, 1081.62, -103.54)" gradientUnits="userSpaceOnUse"><stop offset="0" stop-color="gray" stop-opacity="0.25"></stop><stop offset="0.54" stop-color="gray" stop-opacity="0.12"></stop><stop offset="1" stop-color="gray" stop-opacity="0.1"></stop></linearGradient><linearGradient id="e2d916eb-0c16-4978-ba1c-6a4f2feb782d" x1="590.41" y1="841.63" x2="590.41" y2="111.52" gradientTransform="matrix(0, 1, -1.02, 0, 1082.43, -102.87)" gradientUnits="userSpaceOnUse"><stop offset="0" stop-opacity="0.09"></stop><stop offset="0.55" stop-opacity="0.07"></stop><stop offset="1" stop-opacity="0.02"></stop></linearGradient><linearGradient id="7dc82f8a-aae8-4c14-8443-a0bee5c82ac4" x1="837.64" y1="295.46" x2="837.64" y2="83.19" gradientTransform="matrix(1, 0, 0, 1, 0, 0)" xlink:href="#cc82a564-ea96-4f3a-b817-d04de3d3185f"></linearGradient><linearGradient id="10911ca7-360a-4a17-aa6c-ba55de6df86c" x1="305.44" y1="442.78" x2="305.44" y2="230.5" gradientTransform="matrix(1, 0, 0, 1, 0, 0)" xlink:href="#cc82a564-ea96-4f3a-b817-d04de3d3185f"></linearGradient><linearGradient id="b1d6e2ae-fbc3-4669-9109-ab786db17612" x1="-537.55" y1="760.23" x2="-537.55" y2="547.95" gradientTransform="matrix(-1, 0, 0, 1, 48, 0)" xlink:href="#cc82a564-ea96-4f3a-b817-d04de3d3185f"></linearGradient><linearGradient id="014d2d59-4ea0-44d4-9011-1415ae1e0169" x1="137.34" y1="416.18" x2="137.34" y2="343.15" gradientTransform="matrix(1, 0, 0, 1, 0, 0)" xlink:href="#cc82a564-ea96-4f3a-b817-d04de3d3185f"></linearGradient><linearGradient id="3edc3864-c137-45a8-b4cb-910029123495" x1="677.83" y1="259.53" x2="677.83" y2="186.5" gradientTransform="matrix(1, 0, 0, 1, 0, 0)" xlink:href="#cc82a564-ea96-4f3a-b817-d04de3d3185f"></linearGradient><linearGradient id="526052fb-0a4d-4689-9c8f-871db821c2c2" x1="425.74" y1="733.63" x2="425.74" y2="660.6" gradientTransform="matrix(1, 0, 0, 1, 0, 0)" xlink:href="#cc82a564-ea96-4f3a-b817-d04de3d3185f"></linearGradient></defs><title>connected</title><g opacity="0.5"><path d="M163.68,752.21,162.94,222a20,20,0,0,1,20-20l833.41-1.11a20,20,0,0,1,20,20l.73,530.21a20,20,0,0,1-20,20l-833.41,1.11A20,20,0,0,1,163.68,752.21Z" transform="translate(-162.94 -83.19)" fill="url(#cc82a564-ea96-4f3a-b817-d04de3d3185f)" class="NidbqCDF_0"></path></g><path width="741.32" height="492.4" transform="translate(-163.62 -82.36) rotate(-0.08)" fill="url(#e2d916eb-0c16-4978-ba1c-6a4f2feb782d)" d="M227.85 241.33 L969.1700000000001 241.33 L969.1700000000001 733.73 L227.85 733.73 Z" class="NidbqCDF_1"></path><path width="843.16" height="535.49" transform="translate(-163.61 -82.36) rotate(-0.08)" fill="#fff" d="M 192.15,218.77 L 1011.31,218.77 A 12,12,0,0,1,1023.31,230.77 L 1023.31,742.26 A 12,12,0,0,1,1011.31,754.26 L 192.15,754.26 A 12,12,0,0,1,180.15,742.26 L 180.15,230.77 A 12,12,0,0,1,192.15,218.77" class="NidbqCDF_2"></path><path width="462.44" height="707.19" transform="matrix(0, 1, -1, 0, 928.99, -201.71)" fill="#715ac0" opacity="0.2" d="M374.09 133.87 L836.53 133.87 L836.53 841.0600000000001 L374.09 841.0600000000001 Z" class="NidbqCDF_3"></path><path transform="matrix(1, 0, 0, 1, -163.62, -82.89)" fill="#dbdbdb" d="M197.07,489.24A19.52,19.06 0,1,1 236.11,489.24A19.52,19.06 0,1,1 197.07,489.24" class="NidbqCDF_4"></path><path transform="matrix(1, 0, 0, 1, -163.5, -81.82)" fill="#dbdbdb" d="M982.86,406.92A6.51,6.35 0,1,1 995.88,406.92A6.51,6.35 0,1,1 982.86,406.92" class="NidbqCDF_5"></path><path width="82.58" height="6.51" transform="translate(1305.78 -594) rotate(89.92)" fill="#dbdbdb" d="M 948.83,476.71 L 1031.41,476.71 A 0,0,0,0,1,1031.41,476.71 L 1031.41,483.21999999999997 A 0,0,0,0,1,1031.41,483.21999999999997 L 948.83,483.21999999999997 A 0,0,0,0,1,948.83,483.21999999999997 L 948.83,476.71 A 0,0,0,0,1,948.83,476.71" class="NidbqCDF_6"></path><g opacity="0.5"><path d="M943.46,189A105.82,105.82,0,1,0,778.6,276.83l.07.47a36.22,36.22,0,0,0,12,7.64l.14-.47c5,4.25,25.81,11.05,49.79,11h.52c15.18,0,31.66-2.68,46.16-10.52,0,0,.13-.28.33-.8a37.7,37.7,0,0,0,10-6.83q.09-.61.17-1.2A105.7,105.7,0,0,0,943.46,189Z" transform="translate(-162.94 -83.19)" fill="url(#7dc82f8a-aae8-4c14-8443-a0bee5c82ac4)" class="NidbqCDF_7"></path></g><path fill="#f5f5f5" d="M572.0600000000001,105.83A102.64,102.64 0,1,1 777.34,105.83A102.64,102.64 0,1,1 572.0600000000001,105.83" class="NidbqCDF_8"></path><path d="M798.43,231.22s-24.46,2-18,46.56a35.13,35.13,0,0,0,11.64,7.41l13.76-46.56Z" transform="translate(-162.94 -83.19)" fill="#fda57d" class="NidbqCDF_9"></path><path d="M877.79,231.22s24.46,2,18,46.56a35.13,35.13,0,0,1-11.64,7.41l-13.76-46.56Z" transform="translate(-162.94 -83.19)" fill="#fda57d" class="NidbqCDF_10"></path><path d="M799.49,158.2s-11.64,33.86-18,30.69c0,0,61.26,52.91,115.34,0,0,0-9.52-16.93-23.28-30.69Z" transform="translate(-162.94 -83.19)" fill="#333" class="NidbqCDF_11"></path><path fill="#333" d="M630.31,71.84A45.5,45.5 0,1,1 721.31,71.84A45.5,45.5 0,1,1 630.31,71.84" class="NidbqCDF_12"></path><path d="M877.32,231.22H798L790.55,263s-4.35,14.7,1.06,21.16,56,21.16,93.12,1.06a41.4,41.4,0,0,0,1.06-26.45c-4.23-14.81-1.06-1.06-1.06-1.06Z" transform="translate(-162.94 -83.19)" opacity="0.1" class="NidbqCDF_13"></path><path d="M878.38,231.22H799L791.61,263s-4.35,14.7,1.06,21.16,56,21.16,93.12,1.06a41.4,41.4,0,0,0,1.06-26.45c-4.23-14.81-1.06-1.06-1.06-1.06Z" transform="translate(-162.94 -83.19)" opacity="0.1" class="NidbqCDF_14"></path><path d="M877.79,231.22H798.43L791,263s-4.35,14.7,1.06,21.16,56,21.16,93.12,1.06a41.4,41.4,0,0,0,1.06-26.45c-4.23-14.81-1.06-1.06-1.06-1.06Z" transform="translate(-162.94 -83.19)" fill="#715ac0" class="NidbqCDF_15"></path><path d="M659.82,121.7h31.75a0,0,0,0,1,0,0v26a15.3,15.3,0,0,1-15.3,15.3h-1.15a15.3,15.3,0,0,1-15.3-15.3v-26A0,0,0,0,1,659.82,121.7Z" opacity="0.1" class="NidbqCDF_16"></path><path d="M659.82,120.52h31.75a0,0,0,0,1,0,0v26a15.3,15.3,0,0,1-15.3,15.3h-1.15a15.3,15.3,0,0,1-15.3-15.3v-26A0,0,0,0,1,659.82,120.52Z" fill="#fda57d" class="NidbqCDF_17"></path><path d="M822.83,208.28a45.69,45.69,0,0,0,31.75.09v-3.9H822.83Z" transform="translate(-162.94 -83.19)" opacity="0.1" class="NidbqCDF_18"></path><path fill="#fda57d" d="M630.31,81.72A45.5,45.5 0,1,1 721.31,81.72A45.5,45.5 0,1,1 630.31,81.72" class="NidbqCDF_19"></path><path d="M795.25,147.62H882s-7.41-35-40.21-32.8S795.25,147.62,795.25,147.62Z" transform="translate(-162.94 -83.19)" fill="#333" class="NidbqCDF_20"></path><path fill="#fda57d" d="M627.02,79.78A4.23,7.94 0,1,1 635.48,79.78A4.23,7.94 0,1,1 627.02,79.78" class="NidbqCDF_21"></path><path fill="#fda57d" d="M715.91,79.78A4.23,7.94 0,1,1 724.37,79.78A4.23,7.94 0,1,1 715.91,79.78" class="NidbqCDF_22"></path><path d="M795.25,148.8H882s-7.41-35-40.21-32.8S795.25,148.8,795.25,148.8Z" transform="translate(-162.94 -83.19)" opacity="0.1" class="NidbqCDF_23"></path><g opacity="0.5"><path d="M411.26,336.32a105.82,105.82,0,1,0-164.85,87.83l.07.47a36.22,36.22,0,0,0,12,7.64l.14-.47c5,4.25,25.81,11.05,49.79,11h.52c15.18,0,31.66-2.68,46.16-10.52,0,0,.13-.28.33-.8a37.7,37.7,0,0,0,10-6.83q.09-.61.17-1.2A105.7,105.7,0,0,0,411.26,336.32Z" transform="translate(-162.94 -83.19)" fill="url(#10911ca7-360a-4a17-aa6c-ba55de6df86c)" class="NidbqCDF_24"></path></g><path fill="#f5f5f5" d="M39.86,253.14A102.64,102.64 0,1,1 245.14,253.14A102.64,102.64 0,1,1 39.86,253.14" class="NidbqCDF_25"></path><path d="M261,376.46s-24.46,2-18,46.56a35.13,35.13,0,0,0,11.64,7.41l13.76-46.56Z" transform="translate(-162.94 -83.19)" fill="#715ac0" class="NidbqCDF_26"></path><path d="M340.41,376.46s24.46,2,18,46.56a35.13,35.13,0,0,1-11.64,7.41L333,383.86Z" transform="translate(-162.94 -83.19)" fill="#715ac0" class="NidbqCDF_27"></path><path fill="#333" d="M92.93,217.08A45.5,45.5 0,1,1 183.93,217.08A45.5,45.5 0,1,1 92.93,217.08" class="NidbqCDF_28"></path><path d="M339.94,376.46H260.57l-7.41,31.75s-4.35,14.7,1.06,21.16,56,21.16,93.12,1.06A41.4,41.4,0,0,0,348.4,404c-4.23-14.81-1.06-1.06-1.06-1.06Z" transform="translate(-162.94 -83.19)" fill="#4d8af0" class="NidbqCDF_29"></path><path d="M341,376.46H261.63l-7.41,31.75s-4.35,14.7,1.06,21.16,56,21.16,93.12,1.06A41.4,41.4,0,0,0,349.46,404c-4.23-14.81-1.06-1.06-1.06-1.06Z" transform="translate(-162.94 -83.19)" fill="#4d8af0" class="NidbqCDF_30"></path><path d="M340.41,376.46H261l-7.41,31.75s-4.35,14.7,1.06,21.16,56,21.16,93.12,1.06A41.4,41.4,0,0,0,348.87,404c-4.23-14.81-1.06-1.06-1.06-1.06Z" transform="translate(-162.94 -83.19)" fill="#715ac0" class="NidbqCDF_31"></path><path d="M122.44,266.93h31.75a0,0,0,0,1,0,0v26a15.3,15.3,0,0,1-15.3,15.3h-1.15a15.3,15.3,0,0,1-15.3-15.3v-26a0,0,0,0,1,0,0Z" opacity="0.1" class="NidbqCDF_32"></path><path d="M122.44,265.76h31.75a0,0,0,0,1,0,0v26a15.3,15.3,0,0,1-15.3,15.3h-1.15a15.3,15.3,0,0,1-15.3-15.3v-26a0,0,0,0,1,0,0Z" fill="#fdb797" class="NidbqCDF_33"></path><path d="M285.44,353.52a45.69,45.69,0,0,0,31.75.09v-3.9H285.44Z" transform="translate(-162.94 -83.19)" opacity="0.1" class="NidbqCDF_34"></path><path fill="#fdb797" d="M92.93,226.96A45.5,45.5 0,1,1 183.93,226.96A45.5,45.5 0,1,1 92.93,226.96" class="NidbqCDF_35"></path><path d="M257.87,294h86.77s-7.41-35-40.21-32.8S257.87,294,257.87,294Z" transform="translate(-162.94 -83.19)" opacity="0.1" class="NidbqCDF_36"></path><path d="M257.87,292.86h86.77s-7.41-35-40.21-32.8S257.87,292.86,257.87,292.86Z" transform="translate(-162.94 -83.19)" fill="#333" class="NidbqCDF_37"></path><path fill="#fdb797" d="M89.64,225.02A4.23,7.94 0,1,1 98.10000000000001,225.02A4.23,7.94 0,1,1 89.64,225.02" class="NidbqCDF_38"></path><path fill="#fdb797" d="M178.52,225.02A4.23,7.94 0,1,1 186.98,225.02A4.23,7.94 0,1,1 178.52,225.02" class="NidbqCDF_39"></path><path d="M264.61,269.65a16.13,16.13,0,0,1,5.85-8.67c2.22-1.54,4.87-2.28,7.41-3.18a56.65,56.65,0,0,0,10.78-5.15c3.86-2.38,7.48-5.24,11.73-6.81,7.31-2.7,15.45-1.24,23,.7a19.35,19.35,0,0,1,5.38,2,20.36,20.36,0,0,1,4.77,4.62l12,14.45a23,23,0,0,1,3,4.19,14.43,14.43,0,0,1,1.36,4.73,12.38,12.38,0,0,1-1.28,7.76c-2,3.46-6.2,5.2-10.2,5.36s-7.93-1-11.78-2.13c-12.4-3.63-25-7-37.82-8.52a106.67,106.67,0,0,0-19.24-.62c-2,.13-4.68,1.06-5.9-1C262.56,275.59,264.06,271.43,264.61,269.65Z" transform="translate(-162.94 -83.19)" fill="#333" class="NidbqCDF_40"></path><g opacity="0.5"><path d="M479.73,653.77A105.82,105.82,0,1,1,644.58,741.6l-.07.47a36.22,36.22,0,0,1-12,7.64l-.14-.47c-5,4.25-25.81,11.05-49.79,11h-.52c-15.18,0-31.66-2.68-46.16-10.52,0,0-.13-.28-.33-.8a37.7,37.7,0,0,1-10-6.83q-.09-.61-.17-1.2A105.7,105.7,0,0,1,479.73,653.77Z" transform="translate(-162.94 -83.19)" fill="url(#b1d6e2ae-fbc3-4669-9109-ab786db17612)" class="NidbqCDF_41"></path></g><path fill="#f5f5f5" d="M319.96000000000004,570.59A102.64,102.64 0,1,1 525.24,570.59A102.64,102.64 0,1,1 319.96000000000004,570.59" class="NidbqCDF_42"></path><path d="M545.3,692.87s-24.46,2-18,46.56a35.13,35.13,0,0,0,11.64,7.41l13.76-46.56Z" transform="translate(-162.94 -83.19)" fill="#be7c5e" class="NidbqCDF_43"></path><path d="M624.66,692.87s24.46,2,18,46.56A35.13,35.13,0,0,1,631,746.84l-13.76-46.56Z" transform="translate(-162.94 -83.19)" fill="#be7c5e" class="NidbqCDF_44"></path><path d="M546.36,619.86s-1.88,5.48-4.55,11.82c-5.82,13.87.82,67.13,14.75,72.8,15.63,6.37,36.18,10.45,57.53,2.66,18.56-6.77,24.28-67.39,11.16-82.16-1.54-1.73-3.15-3.45-4.83-5.13Z" transform="translate(-162.94 -83.19)" fill="#333" class="NidbqCDF_45"></path><path fill="#333" d="M377.18,533.5A45.5,45.5 0,1,1 468.18,533.5A45.5,45.5 0,1,1 377.18,533.5" class="NidbqCDF_46"></path><path d="M624.19,692.87H544.83l-7.41,31.75s-4.35,14.7,1.06,21.16,56,21.16,93.12,1.06a41.4,41.4,0,0,0,1.06-26.45c-4.23-14.81-1.06-1.06-1.06-1.06Z" transform="translate(-162.94 -83.19)" opacity="0.1" class="NidbqCDF_47"></path><path d="M625.25,692.87H545.89l-7.41,31.75s-4.35,14.7,1.06,21.16,56,21.16,93.12,1.06a41.4,41.4,0,0,0,1.06-26.45c-4.23-14.81-1.06-1.06-1.06-1.06Z" transform="translate(-162.94 -83.19)" opacity="0.1" class="NidbqCDF_48"></path><path d="M624.66,692.87H545.3l-7.41,31.75s-4.35,14.7,1.06,21.16,56,21.16,93.12,1.06a41.4,41.4,0,0,0,1.06-26.45c-4.23-14.81-1.06-1.06-1.06-1.06Z" transform="translate(-162.94 -83.19)" fill="#715ac0" class="NidbqCDF_49"></path><path d="M406.69,583.35h31.75a0,0,0,0,1,0,0v26a15.3,15.3,0,0,1-15.3,15.3H422a15.3,15.3,0,0,1-15.3-15.3v-26A0,0,0,0,1,406.69,583.35Z" opacity="0.1" class="NidbqCDF_50"></path><path d="M406.69,582.17h31.75a0,0,0,0,1,0,0v26a15.3,15.3,0,0,1-15.3,15.3H422a15.3,15.3,0,0,1-15.3-15.3v-26A0,0,0,0,1,406.69,582.17Z" fill="#be7c5e" class="NidbqCDF_51"></path><path d="M569.7,669.93a45.69,45.69,0,0,0,31.75.09v-3.9H569.7Z" transform="translate(-162.94 -83.19)" opacity="0.1" class="NidbqCDF_52"></path><path fill="#be7c5e" d="M377.18,543.37A45.5,45.5 0,1,1 468.18,543.37A45.5,45.5 0,1,1 377.18,543.37" class="NidbqCDF_53"></path><path d="M542.12,609.28h86.77s-7.41-35-40.21-32.8S542.12,609.28,542.12,609.28Z" transform="translate(-162.94 -83.19)" fill="#333" class="NidbqCDF_54"></path><path fill="#be7c5e" d="M373.89,541.43A4.23,7.94 0,1,1 382.35,541.43A4.23,7.94 0,1,1 373.89,541.43" class="NidbqCDF_55"></path><path fill="#be7c5e" d="M462.78,541.43A4.23,7.94 0,1,1 471.24,541.43A4.23,7.94 0,1,1 462.78,541.43" class="NidbqCDF_56"></path><path d="M542.12,610.45h86.77s-7.41-35-40.21-32.8S542.12,610.45,542.12,610.45Z" transform="translate(-162.94 -83.19)" opacity="0.1" class="NidbqCDF_57"></path><path fill="none" stroke="#715ac0" stroke-miterlimit="10" stroke-width="2" stroke-dasharray="12" d="M672.1,240.44L672.1,623.25L569.4,623.25" class="NidbqCDF_58"></path><path fill="none" stroke="#715ac0" stroke-miterlimit="10" stroke-width="2" stroke-dasharray="12" d="M139.91,380.49L139.91,623.25L289.29,623.25" class="NidbqCDF_59"></path><g opacity="0.5"><path fill="url(#014d2d59-4ea0-44d4-9011-1415ae1e0169)" d="M100.82,379.66A36.52,36.52 0,1,1 173.86,379.66A36.52,36.52 0,1,1 100.82,379.66" class="NidbqCDF_60"></path></g><path fill="#69f0ae" d="M102.97,379.66A34.37,34.37 0,1,1 171.71,379.66A34.37,34.37 0,1,1 102.97,379.66" class="NidbqCDF_61"></path><path fill="#fff" d="M122.42,375.08L135.31,386.89L153.56,360.04L160.01,365.41L135.31,397.63L117.05,377.23L122.42,375.08Z" class="NidbqCDF_62"></path><g opacity="0.5"><path fill="url(#3edc3864-c137-45a8-b4cb-910029123495)" d="M641.3100000000001,223.01A36.52,36.52 0,1,1 714.35,223.01A36.52,36.52 0,1,1 641.3100000000001,223.01" class="NidbqCDF_63"></path></g><path fill="#69f0ae" d="M643.46,223.01A34.37,34.37 0,1,1 712.2,223.01A34.37,34.37 0,1,1 643.46,223.01" class="NidbqCDF_64"></path><path fill="#fff" d="M662.91,218.43L675.8,230.24L694.06,203.39L700.5,208.76L675.8,240.98L657.54,220.57L662.91,218.43Z" class="NidbqCDF_65"></path><g opacity="0.5"><path fill="url(#526052fb-0a4d-4689-9c8f-871db821c2c2)" d="M389.22,697.11A36.52,36.52 0,1,1 462.26,697.11A36.52,36.52 0,1,1 389.22,697.11" class="NidbqCDF_66"></path></g><path fill="#69f0ae" d="M391.37,697.11A34.37,34.37 0,1,1 460.11,697.11A34.37,34.37 0,1,1 391.37,697.11" class="NidbqCDF_67"></path><path fill="#fff" d="M410.82,692.53L423.71,704.34L441.97,677.49L448.41,682.86L423.71,715.08L405.45,694.68L410.82,692.53Z" class="NidbqCDF_68"></path><style data-made-with="vivus-instant">.NidbqCDF_0{stroke-dasharray:2853 2855;stroke-dashoffset:2854;animation:NidbqCDF_draw_0 7200ms linear 0ms infinite,NidbqCDF_fade 7200ms linear 0ms infinite;}.NidbqCDF_1{stroke-dasharray:2468 2470;stroke-dashoffset:2469;animation:NidbqCDF_draw_1 7200ms linear 0ms infinite,NidbqCDF_fade 7200ms linear 0ms infinite;}.NidbqCDF_2{stroke-dasharray:2737 2739;stroke-dashoffset:2738;animation:NidbqCDF_draw_2 7200ms linear 0ms infinite,NidbqCDF_fade 7200ms linear 0ms infinite;}.NidbqCDF_3{stroke-dasharray:2340 2342;stroke-dashoffset:2341;animation:NidbqCDF_draw_3 7200ms linear 0ms infinite,NidbqCDF_fade 7200ms linear 0ms infinite;}.NidbqCDF_4{stroke-dasharray:122 124;stroke-dashoffset:123;animation:NidbqCDF_draw_4 7200ms linear 0ms infinite,NidbqCDF_fade 7200ms linear 0ms infinite;}.NidbqCDF_5{stroke-dasharray:41 43;stroke-dashoffset:42;animation:NidbqCDF_draw_5 7200ms linear 0ms infinite,NidbqCDF_fade 7200ms linear 0ms infinite;}.NidbqCDF_6{stroke-dasharray:179 181;stroke-dashoffset:180;animation:NidbqCDF_draw_6 7200ms linear 0ms infinite,NidbqCDF_fade 7200ms linear 0ms infinite;}.NidbqCDF_7{stroke-dasharray:668 670;stroke-dashoffset:669;animation:NidbqCDF_draw_7 7200ms linear 0ms infinite,NidbqCDF_fade 7200ms linear 0ms infinite;}.NidbqCDF_8{stroke-dasharray:645 647;stroke-dashoffset:646;animation:NidbqCDF_draw_8 7200ms linear 0ms infinite,NidbqCDF_fade 7200ms linear 0ms infinite;}.NidbqCDF_9{stroke-dasharray:129 131;stroke-dashoffset:130;animation:NidbqCDF_draw_9 7200ms linear 0ms infinite,NidbqCDF_fade 7200ms linear 0ms infinite;}.NidbqCDF_10{stroke-dasharray:129 131;stroke-dashoffset:130;animation:NidbqCDF_draw_10 7200ms linear 0ms infinite,NidbqCDF_fade 7200ms linear 0ms infinite;}.NidbqCDF_11{stroke-dasharray:278 280;stroke-dashoffset:279;animation:NidbqCDF_draw_11 7200ms linear 0ms infinite,NidbqCDF_fade 7200ms linear 0ms infinite;}.NidbqCDF_12{stroke-dasharray:286 288;stroke-dashoffset:287;animation:NidbqCDF_draw_12 7200ms linear 0ms infinite,NidbqCDF_fade 7200ms linear 0ms infinite;}.NidbqCDF_13{stroke-dasharray:299 301;stroke-dashoffset:300;animation:NidbqCDF_draw_13 7200ms linear 0ms infinite,NidbqCDF_fade 7200ms linear 0ms infinite;}.NidbqCDF_14{stroke-dasharray:299 301;stroke-dashoffset:300;animation:NidbqCDF_draw_14 7200ms linear 0ms infinite,NidbqCDF_fade 7200ms linear 0ms infinite;}.NidbqCDF_15{stroke-dasharray:299 301;stroke-dashoffset:300;animation:NidbqCDF_draw_15 7200ms linear 0ms infinite,NidbqCDF_fade 7200ms linear 0ms infinite;}.NidbqCDF_16{stroke-dasharray:133 135;stroke-dashoffset:134;animation:NidbqCDF_draw_16 7200ms linear 0ms infinite,NidbqCDF_fade 7200ms linear 0ms infinite;}.NidbqCDF_17{stroke-dasharray:133 135;stroke-dashoffset:134;animation:NidbqCDF_draw_17 7200ms linear 0ms infinite,NidbqCDF_fade 7200ms linear 0ms infinite;}.NidbqCDF_18{stroke-dasharray:72 74;stroke-dashoffset:73;animation:NidbqCDF_draw_18 7200ms linear 0ms infinite,NidbqCDF_fade 7200ms linear 0ms infinite;}.NidbqCDF_19{stroke-dasharray:286 288;stroke-dashoffset:287;animation:NidbqCDF_draw_19 7200ms linear 0ms infinite,NidbqCDF_fade 7200ms linear 0ms infinite;}.NidbqCDF_20{stroke-dasharray:204 206;stroke-dashoffset:205;animation:NidbqCDF_draw_20 7200ms linear 0ms infinite,NidbqCDF_fade 7200ms linear 0ms infinite;}.NidbqCDF_21{stroke-dasharray:40 42;stroke-dashoffset:41;animation:NidbqCDF_draw_21 7200ms linear 0ms infinite,NidbqCDF_fade 7200ms linear 0ms infinite;}.NidbqCDF_22{stroke-dasharray:40 42;stroke-dashoffset:41;animation:NidbqCDF_draw_22 7200ms linear 0ms infinite,NidbqCDF_fade 7200ms linear 0ms infinite;}.NidbqCDF_23{stroke-dasharray:204 206;stroke-dashoffset:205;animation:NidbqCDF_draw_23 7200ms linear 0ms infinite,NidbqCDF_fade 7200ms linear 0ms infinite;}.NidbqCDF_24{stroke-dasharray:668 670;stroke-dashoffset:669;animation:NidbqCDF_draw_24 7200ms linear 0ms infinite,NidbqCDF_fade 7200ms linear 0ms infinite;}.NidbqCDF_25{stroke-dasharray:645 647;stroke-dashoffset:646;animation:NidbqCDF_draw_25 7200ms linear 0ms infinite,NidbqCDF_fade 7200ms linear 0ms infinite;}.NidbqCDF_26{stroke-dasharray:129 131;stroke-dashoffset:130;animation:NidbqCDF_draw_26 7200ms linear 0ms infinite,NidbqCDF_fade 7200ms linear 0ms infinite;}.NidbqCDF_27{stroke-dasharray:129 131;stroke-dashoffset:130;animation:NidbqCDF_draw_27 7200ms linear 0ms infinite,NidbqCDF_fade 7200ms linear 0ms infinite;}.NidbqCDF_28{stroke-dasharray:286 288;stroke-dashoffset:287;animation:NidbqCDF_draw_28 7200ms linear 0ms infinite,NidbqCDF_fade 7200ms linear 0ms infinite;}.NidbqCDF_29{stroke-dasharray:299 301;stroke-dashoffset:300;animation:NidbqCDF_draw_29 7200ms linear 0ms infinite,NidbqCDF_fade 7200ms linear 0ms infinite;}.NidbqCDF_30{stroke-dasharray:299 301;stroke-dashoffset:300;animation:NidbqCDF_draw_30 7200ms linear 0ms infinite,NidbqCDF_fade 7200ms linear 0ms infinite;}.NidbqCDF_31{stroke-dasharray:299 301;stroke-dashoffset:300;animation:NidbqCDF_draw_31 7200ms linear 0ms infinite,NidbqCDF_fade 7200ms linear 0ms infinite;}.NidbqCDF_32{stroke-dasharray:133 135;stroke-dashoffset:134;animation:NidbqCDF_draw_32 7200ms linear 0ms infinite,NidbqCDF_fade 7200ms linear 0ms infinite;}.NidbqCDF_33{stroke-dasharray:133 135;stroke-dashoffset:134;animation:NidbqCDF_draw_33 7200ms linear 0ms infinite,NidbqCDF_fade 7200ms linear 0ms infinite;}.NidbqCDF_34{stroke-dasharray:72 74;stroke-dashoffset:73;animation:NidbqCDF_draw_34 7200ms linear 0ms infinite,NidbqCDF_fade 7200ms linear 0ms infinite;}.NidbqCDF_35{stroke-dasharray:286 288;stroke-dashoffset:287;animation:NidbqCDF_draw_35 7200ms linear 0ms infinite,NidbqCDF_fade 7200ms linear 0ms infinite;}.NidbqCDF_36{stroke-dasharray:204 206;stroke-dashoffset:205;animation:NidbqCDF_draw_36 7200ms linear 0ms infinite,NidbqCDF_fade 7200ms linear 0ms infinite;}.NidbqCDF_37{stroke-dasharray:204 206;stroke-dashoffset:205;animation:NidbqCDF_draw_37 7200ms linear 0ms infinite,NidbqCDF_fade 7200ms linear 0ms infinite;}.NidbqCDF_38{stroke-dasharray:40 42;stroke-dashoffset:41;animation:NidbqCDF_draw_38 7200ms linear 0ms infinite,NidbqCDF_fade 7200ms linear 0ms infinite;}.NidbqCDF_39{stroke-dasharray:40 42;stroke-dashoffset:41;animation:NidbqCDF_draw_39 7200ms linear 0ms infinite,NidbqCDF_fade 7200ms linear 0ms infinite;}.NidbqCDF_40{stroke-dasharray:214 216;stroke-dashoffset:215;animation:NidbqCDF_draw_40 7200ms linear 0ms infinite,NidbqCDF_fade 7200ms linear 0ms infinite;}.NidbqCDF_41{stroke-dasharray:668 670;stroke-dashoffset:669;animation:NidbqCDF_draw_41 7200ms linear 0ms infinite,NidbqCDF_fade 7200ms linear 0ms infinite;}.NidbqCDF_42{stroke-dasharray:645 647;stroke-dashoffset:646;animation:NidbqCDF_draw_42 7200ms linear 0ms infinite,NidbqCDF_fade 7200ms linear 0ms infinite;}.NidbqCDF_43{stroke-dasharray:129 131;stroke-dashoffset:130;animation:NidbqCDF_draw_43 7200ms linear 0ms infinite,NidbqCDF_fade 7200ms linear 0ms infinite;}.NidbqCDF_44{stroke-dasharray:129 131;stroke-dashoffset:130;animation:NidbqCDF_draw_44 7200ms linear 0ms infinite,NidbqCDF_fade 7200ms linear 0ms infinite;}.NidbqCDF_45{stroke-dasharray:320 322;stroke-dashoffset:321;animation:NidbqCDF_draw_45 7200ms linear 0ms infinite,NidbqCDF_fade 7200ms linear 0ms infinite;}.NidbqCDF_46{stroke-dasharray:286 288;stroke-dashoffset:287;animation:NidbqCDF_draw_46 7200ms linear 0ms infinite,NidbqCDF_fade 7200ms linear 0ms infinite;}.NidbqCDF_47{stroke-dasharray:299 301;stroke-dashoffset:300;animation:NidbqCDF_draw_47 7200ms linear 0ms infinite,NidbqCDF_fade 7200ms linear 0ms infinite;}.NidbqCDF_48{stroke-dasharray:299 301;stroke-dashoffset:300;animation:NidbqCDF_draw_48 7200ms linear 0ms infinite,NidbqCDF_fade 7200ms linear 0ms infinite;}.NidbqCDF_49{stroke-dasharray:299 301;stroke-dashoffset:300;animation:NidbqCDF_draw_49 7200ms linear 0ms infinite,NidbqCDF_fade 7200ms linear 0ms infinite;}.NidbqCDF_50{stroke-dasharray:133 135;stroke-dashoffset:134;animation:NidbqCDF_draw_50 7200ms linear 0ms infinite,NidbqCDF_fade 7200ms linear 0ms infinite;}.NidbqCDF_51{stroke-dasharray:133 135;stroke-dashoffset:134;animation:NidbqCDF_draw_51 7200ms linear 0ms infinite,NidbqCDF_fade 7200ms linear 0ms infinite;}.NidbqCDF_52{stroke-dasharray:72 74;stroke-dashoffset:73;animation:NidbqCDF_draw_52 7200ms linear 0ms infinite,NidbqCDF_fade 7200ms linear 0ms infinite;}.NidbqCDF_53{stroke-dasharray:286 288;stroke-dashoffset:287;animation:NidbqCDF_draw_53 7200ms linear 0ms infinite,NidbqCDF_fade 7200ms linear 0ms infinite;}.NidbqCDF_54{stroke-dasharray:204 206;stroke-dashoffset:205;animation:NidbqCDF_draw_54 7200ms linear 0ms infinite,NidbqCDF_fade 7200ms linear 0ms infinite;}.NidbqCDF_55{stroke-dasharray:40 42;stroke-dashoffset:41;animation:NidbqCDF_draw_55 7200ms linear 0ms infinite,NidbqCDF_fade 7200ms linear 0ms infinite;}.NidbqCDF_56{stroke-dasharray:40 42;stroke-dashoffset:41;animation:NidbqCDF_draw_56 7200ms linear 0ms infinite,NidbqCDF_fade 7200ms linear 0ms infinite;}.NidbqCDF_57{stroke-dasharray:204 206;stroke-dashoffset:205;animation:NidbqCDF_draw_57 7200ms linear 0ms infinite,NidbqCDF_fade 7200ms linear 0ms infinite;}.NidbqCDF_58{stroke-dasharray:486 488;stroke-dashoffset:487;animation:NidbqCDF_draw_58 7200ms linear 0ms infinite,NidbqCDF_fade 7200ms linear 0ms infinite;}.NidbqCDF_59{stroke-dasharray:393 395;stroke-dashoffset:394;animation:NidbqCDF_draw_59 7200ms linear 0ms infinite,NidbqCDF_fade 7200ms linear 0ms infinite;}.NidbqCDF_60{stroke-dasharray:230 232;stroke-dashoffset:231;animation:NidbqCDF_draw_60 7200ms linear 0ms infinite,NidbqCDF_fade 7200ms linear 0ms infinite;}.NidbqCDF_61{stroke-dasharray:217 219;stroke-dashoffset:218;animation:NidbqCDF_draw_61 7200ms linear 0ms infinite,NidbqCDF_fade 7200ms linear 0ms infinite;}.NidbqCDF_62{stroke-dasharray:133 135;stroke-dashoffset:134;animation:NidbqCDF_draw_62 7200ms linear 0ms infinite,NidbqCDF_fade 7200ms linear 0ms infinite;}.NidbqCDF_63{stroke-dasharray:230 232;stroke-dashoffset:231;animation:NidbqCDF_draw_63 7200ms linear 0ms infinite,NidbqCDF_fade 7200ms linear 0ms infinite;}.NidbqCDF_64{stroke-dasharray:216 218;stroke-dashoffset:217;animation:NidbqCDF_draw_64 7200ms linear 0ms infinite,NidbqCDF_fade 7200ms linear 0ms infinite;}.NidbqCDF_65{stroke-dasharray:133 135;stroke-dashoffset:134;animation:NidbqCDF_draw_65 7200ms linear 0ms infinite,NidbqCDF_fade 7200ms linear 0ms infinite;}.NidbqCDF_66{stroke-dasharray:230 232;stroke-dashoffset:231;animation:NidbqCDF_draw_66 7200ms linear 0ms infinite,NidbqCDF_fade 7200ms linear 0ms infinite;}.NidbqCDF_67{stroke-dasharray:217 219;stroke-dashoffset:218;animation:NidbqCDF_draw_67 7200ms linear 0ms infinite,NidbqCDF_fade 7200ms linear 0ms infinite;}.NidbqCDF_68{stroke-dasharray:133 135;stroke-dashoffset:134;animation:NidbqCDF_draw_68 7200ms linear 0ms infinite,NidbqCDF_fade 7200ms linear 0ms infinite;}@keyframes NidbqCDF_draw{100%{stroke-dashoffset:0;}}@keyframes NidbqCDF_fade{0%{stroke-opacity:1;}94.44444444444444%{stroke-opacity:1;}100%{stroke-opacity:0;}}@keyframes NidbqCDF_draw_0{11.11111111111111%{stroke-dashoffset: 2854}38.88888888888889%{ stroke-dashoffset: 0;}100%{ stroke-dashoffset: 0;}}@keyframes NidbqCDF_draw_1{11.315359477124183%{stroke-dashoffset: 2469}39.09313725490197%{ stroke-dashoffset: 0;}100%{ stroke-dashoffset: 0;}}@keyframes NidbqCDF_draw_2{11.519607843137255%{stroke-dashoffset: 2738}39.29738562091503%{ stroke-dashoffset: 0;}100%{ stroke-dashoffset: 0;}}@keyframes NidbqCDF_draw_3{11.723856209150327%{stroke-dashoffset: 2341}39.501633986928105%{ stroke-dashoffset: 0;}100%{ stroke-dashoffset: 0;}}@keyframes NidbqCDF_draw_4{11.928104575163399%{stroke-dashoffset: 123}39.70588235294118%{ stroke-dashoffset: 0;}100%{ stroke-dashoffset: 0;}}@keyframes NidbqCDF_draw_5{12.132352941176471%{stroke-dashoffset: 42}39.91013071895424%{ stroke-dashoffset: 0;}100%{ stroke-dashoffset: 0;}}@keyframes NidbqCDF_draw_6{12.336601307189543%{stroke-dashoffset: 180}40.11437908496732%{ stroke-dashoffset: 0;}100%{ stroke-dashoffset: 0;}}@keyframes NidbqCDF_draw_7{12.540849673202615%{stroke-dashoffset: 669}40.318627450980394%{ stroke-dashoffset: 0;}100%{ stroke-dashoffset: 0;}}@keyframes NidbqCDF_draw_8{12.745098039215685%{stroke-dashoffset: 646}40.52287581699346%{ stroke-dashoffset: 0;}100%{ stroke-dashoffset: 0;}}@keyframes NidbqCDF_draw_9{12.94934640522876%{stroke-dashoffset: 130}40.72712418300654%{ stroke-dashoffset: 0;}100%{ stroke-dashoffset: 0;}}@keyframes NidbqCDF_draw_10{13.153594771241831%{stroke-dashoffset: 130}40.931372549019606%{ stroke-dashoffset: 0;}100%{ stroke-dashoffset: 0;}}@keyframes NidbqCDF_draw_11{13.357843137254902%{stroke-dashoffset: 279}41.13562091503268%{ stroke-dashoffset: 0;}100%{ stroke-dashoffset: 0;}}@keyframes NidbqCDF_draw_12{13.562091503267974%{stroke-dashoffset: 287}41.33986928104576%{ stroke-dashoffset: 0;}100%{ stroke-dashoffset: 0;}}@keyframes NidbqCDF_draw_13{13.766339869281044%{stroke-dashoffset: 300}41.54411764705882%{ stroke-dashoffset: 0;}100%{ stroke-dashoffset: 0;}}@keyframes NidbqCDF_draw_14{13.970588235294118%{stroke-dashoffset: 300}41.748366013071895%{ stroke-dashoffset: 0;}100%{ stroke-dashoffset: 0;}}@keyframes NidbqCDF_draw_15{14.17483660130719%{stroke-dashoffset: 300}41.95261437908497%{ stroke-dashoffset: 0;}100%{ stroke-dashoffset: 0;}}@keyframes NidbqCDF_draw_16{14.37908496732026%{stroke-dashoffset: 134}42.15686274509803%{ stroke-dashoffset: 0;}100%{ stroke-dashoffset: 0;}}@keyframes NidbqCDF_draw_17{14.583333333333334%{stroke-dashoffset: 134}42.36111111111111%{ stroke-dashoffset: 0;}100%{ stroke-dashoffset: 0;}}@keyframes NidbqCDF_draw_18{14.787581699346406%{stroke-dashoffset: 73}42.56535947712419%{ stroke-dashoffset: 0;}100%{ stroke-dashoffset: 0;}}@keyframes NidbqCDF_draw_19{14.99183006535948%{stroke-dashoffset: 287}42.76960784313726%{ stroke-dashoffset: 0;}100%{ stroke-dashoffset: 0;}}@keyframes NidbqCDF_draw_20{15.196078431372548%{stroke-dashoffset: 205}42.97385620915033%{ stroke-dashoffset: 0;}100%{ stroke-dashoffset: 0;}}@keyframes NidbqCDF_draw_21{15.400326797385619%{stroke-dashoffset: 41}43.1781045751634%{ stroke-dashoffset: 0;}100%{ stroke-dashoffset: 0;}}@keyframes NidbqCDF_draw_22{15.604575163398692%{stroke-dashoffset: 41}43.38235294117647%{ stroke-dashoffset: 0;}100%{ stroke-dashoffset: 0;}}@keyframes NidbqCDF_draw_23{15.808823529411764%{stroke-dashoffset: 205}43.58660130718954%{ stroke-dashoffset: 0;}100%{ stroke-dashoffset: 0;}}@keyframes NidbqCDF_draw_24{16.013071895424837%{stroke-dashoffset: 669}43.790849673202615%{ stroke-dashoffset: 0;}100%{ stroke-dashoffset: 0;}}@keyframes NidbqCDF_draw_25{16.217320261437905%{stroke-dashoffset: 646}43.995098039215684%{ stroke-dashoffset: 0;}100%{ stroke-dashoffset: 0;}}@keyframes NidbqCDF_draw_26{16.42156862745098%{stroke-dashoffset: 130}44.19934640522875%{ stroke-dashoffset: 0;}100%{ stroke-dashoffset: 0;}}@keyframes NidbqCDF_draw_27{16.625816993464053%{stroke-dashoffset: 130}44.40359477124183%{ stroke-dashoffset: 0;}100%{ stroke-dashoffset: 0;}}@keyframes NidbqCDF_draw_28{16.83006535947712%{stroke-dashoffset: 287}44.6078431372549%{ stroke-dashoffset: 0;}100%{ stroke-dashoffset: 0;}}@keyframes NidbqCDF_draw_29{17.034313725490197%{stroke-dashoffset: 300}44.81209150326798%{ stroke-dashoffset: 0;}100%{ stroke-dashoffset: 0;}}@keyframes NidbqCDF_draw_30{17.238562091503265%{stroke-dashoffset: 300}45.01633986928104%{ stroke-dashoffset: 0;}100%{ stroke-dashoffset: 0;}}@keyframes NidbqCDF_draw_31{17.44281045751634%{stroke-dashoffset: 300}45.220588235294116%{ stroke-dashoffset: 0;}100%{ stroke-dashoffset: 0;}}@keyframes NidbqCDF_draw_32{17.64705882352941%{stroke-dashoffset: 134}45.42483660130719%{ stroke-dashoffset: 0;}100%{ stroke-dashoffset: 0;}}@keyframes NidbqCDF_draw_33{17.851307189542485%{stroke-dashoffset: 134}45.62908496732026%{ stroke-dashoffset: 0;}100%{ stroke-dashoffset: 0;}}@keyframes NidbqCDF_draw_34{18.055555555555554%{stroke-dashoffset: 73}45.83333333333333%{ stroke-dashoffset: 0;}100%{ stroke-dashoffset: 0;}}@keyframes NidbqCDF_draw_35{18.259803921568622%{stroke-dashoffset: 287}46.037581699346404%{ stroke-dashoffset: 0;}100%{ stroke-dashoffset: 0;}}@keyframes NidbqCDF_draw_36{18.4640522875817%{stroke-dashoffset: 205}46.24183006535948%{ stroke-dashoffset: 0;}100%{ stroke-dashoffset: 0;}}@keyframes NidbqCDF_draw_37{18.66830065359477%{stroke-dashoffset: 205}46.44607843137255%{ stroke-dashoffset: 0;}100%{ stroke-dashoffset: 0;}}@keyframes NidbqCDF_draw_38{18.872549019607842%{stroke-dashoffset: 41}46.650326797385624%{ stroke-dashoffset: 0;}100%{ stroke-dashoffset: 0;}}@keyframes NidbqCDF_draw_39{19.076797385620914%{stroke-dashoffset: 41}46.85457516339869%{ stroke-dashoffset: 0;}100%{ stroke-dashoffset: 0;}}@keyframes NidbqCDF_draw_40{19.28104575163399%{stroke-dashoffset: 215}47.05882352941176%{ stroke-dashoffset: 0;}100%{ stroke-dashoffset: 0;}}@keyframes NidbqCDF_draw_41{19.485294117647058%{stroke-dashoffset: 669}47.26307189542484%{ stroke-dashoffset: 0;}100%{ stroke-dashoffset: 0;}}@keyframes NidbqCDF_draw_42{19.68954248366013%{stroke-dashoffset: 646}47.467320261437905%{ stroke-dashoffset: 0;}100%{ stroke-dashoffset: 0;}}@keyframes NidbqCDF_draw_43{19.893790849673206%{stroke-dashoffset: 130}47.67156862745098%{ stroke-dashoffset: 0;}100%{ stroke-dashoffset: 0;}}@keyframes NidbqCDF_draw_44{20.098039215686274%{stroke-dashoffset: 130}47.875816993464056%{ stroke-dashoffset: 0;}100%{ stroke-dashoffset: 0;}}@keyframes NidbqCDF_draw_45{20.302287581699346%{stroke-dashoffset: 321}48.080065359477125%{ stroke-dashoffset: 0;}100%{ stroke-dashoffset: 0;}}@keyframes NidbqCDF_draw_46{20.50653594771242%{stroke-dashoffset: 287}48.28431372549019%{ stroke-dashoffset: 0;}100%{ stroke-dashoffset: 0;}}@keyframes NidbqCDF_draw_47{20.71078431372549%{stroke-dashoffset: 300}48.48856209150327%{ stroke-dashoffset: 0;}100%{ stroke-dashoffset: 0;}}@keyframes NidbqCDF_draw_48{20.915032679738562%{stroke-dashoffset: 300}48.69281045751634%{ stroke-dashoffset: 0;}100%{ stroke-dashoffset: 0;}}@keyframes NidbqCDF_draw_49{21.119281045751634%{stroke-dashoffset: 300}48.89705882352941%{ stroke-dashoffset: 0;}100%{ stroke-dashoffset: 0;}}@keyframes NidbqCDF_draw_50{21.323529411764707%{stroke-dashoffset: 134}49.10130718954248%{ stroke-dashoffset: 0;}100%{ stroke-dashoffset: 0;}}@keyframes NidbqCDF_draw_51{21.52777777777778%{stroke-dashoffset: 134}49.30555555555556%{ stroke-dashoffset: 0;}100%{ stroke-dashoffset: 0;}}@keyframes NidbqCDF_draw_52{21.732026143790847%{stroke-dashoffset: 73}49.509803921568626%{ stroke-dashoffset: 0;}100%{ stroke-dashoffset: 0;}}@keyframes NidbqCDF_draw_53{21.936274509803923%{stroke-dashoffset: 287}49.7140522875817%{ stroke-dashoffset: 0;}100%{ stroke-dashoffset: 0;}}@keyframes NidbqCDF_draw_54{22.14052287581699%{stroke-dashoffset: 205}49.91830065359477%{ stroke-dashoffset: 0;}100%{ stroke-dashoffset: 0;}}@keyframes NidbqCDF_draw_55{22.344771241830063%{stroke-dashoffset: 41}50.122549019607845%{ stroke-dashoffset: 0;}100%{ stroke-dashoffset: 0;}}@keyframes NidbqCDF_draw_56{22.54901960784314%{stroke-dashoffset: 41}50.326797385620914%{ stroke-dashoffset: 0;}100%{ stroke-dashoffset: 0;}}@keyframes NidbqCDF_draw_57{22.753267973856207%{stroke-dashoffset: 205}50.53104575163398%{ stroke-dashoffset: 0;}100%{ stroke-dashoffset: 0;}}@keyframes NidbqCDF_draw_58{22.957516339869283%{stroke-dashoffset: 487}50.73529411764706%{ stroke-dashoffset: 0;}100%{ stroke-dashoffset: 0;}}@keyframes NidbqCDF_draw_59{23.16176470588235%{stroke-dashoffset: 394}50.93954248366013%{ stroke-dashoffset: 0;}100%{ stroke-dashoffset: 0;}}@keyframes NidbqCDF_draw_60{23.366013071895424%{stroke-dashoffset: 231}51.143790849673195%{ stroke-dashoffset: 0;}100%{ stroke-dashoffset: 0;}}@keyframes NidbqCDF_draw_61{23.570261437908496%{stroke-dashoffset: 218}51.34803921568627%{ stroke-dashoffset: 0;}100%{ stroke-dashoffset: 0;}}@keyframes NidbqCDF_draw_62{23.774509803921568%{stroke-dashoffset: 134}51.55228758169935%{ stroke-dashoffset: 0;}100%{ stroke-dashoffset: 0;}}@keyframes NidbqCDF_draw_63{23.97875816993464%{stroke-dashoffset: 231}51.75653594771242%{ stroke-dashoffset: 0;}100%{ stroke-dashoffset: 0;}}@keyframes NidbqCDF_draw_64{24.183006535947708%{stroke-dashoffset: 217}51.96078431372548%{ stroke-dashoffset: 0;}100%{ stroke-dashoffset: 0;}}@keyframes NidbqCDF_draw_65{24.387254901960787%{stroke-dashoffset: 134}52.165032679738566%{ stroke-dashoffset: 0;}100%{ stroke-dashoffset: 0;}}@keyframes NidbqCDF_draw_66{24.591503267973856%{stroke-dashoffset: 231}52.369281045751634%{ stroke-dashoffset: 0;}100%{ stroke-dashoffset: 0;}}@keyframes NidbqCDF_draw_67{24.795751633986928%{stroke-dashoffset: 218}52.573529411764696%{ stroke-dashoffset: 0;}100%{ stroke-dashoffset: 0;}}@keyframes NidbqCDF_draw_68{25%{stroke-dashoffset: 134}52.77777777777778%{ stroke-dashoffset: 0;}100%{ stroke-dashoffset: 0;}}</style></svg>