<svg width="250" height="289" xmlns="http://www.w3.org/2000/svg"><path fill="none" d="M-1-1h252v291H-1z"/><g><path fill="#ffd200" d="M156.32 249.19s2.15 3.46 5.59 3 5 2.68 2.18 4.19-11.53-.71-11.53-.71l-1.05-6.26 4.81-.22zM98.08 249.19s-2.15 3.46-5.59 3-5 2.68-2.18 4.19 11.53-.71 11.53-.71l1-6.26-4.76-.22z"/><path fill="#715ac0" d="M137.48 82s18.92 4.42 23 24.79 4.35 38.29 15.46 38.91 19.15-42 19.15-42l8.33 2.16s-8.63 92.63-53.71 49.4S137.48 82 137.48 82z"/><path opacity=".46" fill="#fff" d="M137.48 82s18.92 4.42 23 24.79 4.35 38.29 15.46 38.91 19.15-42 19.15-42l8.33 2.16s-8.63 92.63-53.71 49.4S137.48 82 137.48 82z"/><path fill="#f4a28c" d="M119.42 52.58s1.32 6.36.74 10.76a3.25 3.25 0 01-3.67 2.8c-2.22-.32-5.11-1.4-6.23-4.72l-2.6-5.4a5.83 5.83 0 011.82-6.48c3.32-3.05 9.33-.87 9.94 3.04z"/><path fill="#f4a28c" d="M108.13 57l-.84 21.26 11.74-.38-4.1-15.31-6.8-5.57z"/><path fill="#24285b" d="M117.85 53a26.22 26.22 0 01-6 .25 5.41 5.41 0 01.7 5.9 4.4 4.4 0 01-5.08 2.37l-.87-8.29a6.62 6.62 0 012.63-6.23 22.39 22.39 0 012.61-1.68c2.27-1.24 5.95-.06 7.89-1.93a1.57 1.57 0 012.59.73c.67 2.47.69 6.49-2.55 8.27a5.94 5.94 0 01-1.92.61z"/><path fill="#f4a28c" d="M113.22 58.91s-.34-2.47-2.18-2.06-1.37 4 1.2 4l.98-1.94zM120 56.63l2.09 2.27a1 1 0 01-.45 1.7l-2.41.75.77-4.72z"/><path opacity=".31" fill="#ce8172" d="M116 65.88a7.7 7.7 0 01-4-1.8s.63 3.84 5.32 7.15L116 65.88z"/><path fill="#715ac0" d="M107.29 78.26l11.71-.38s31.48.5 33.44 23.44-11.47 40.84-7 58.74l-42.71 5.46s-69.99-70.35 4.56-87.26z"/><path opacity=".08" d="M101.69 93.74s14.45 11.57 4.84 32.3-3.68 27.32 10.72 23.49 20.23-19.41 20.23-19.41l7.08 21.88a29.19 29.19 0 00.91 8l-42.71 5.46-1.55-1.62-19.34-27.2 19.82-42.9z"/><path fill="#ffd200" d="M131.146 106.404l31.274 5.116-6.919 42.298-31.274-5.116z"/><path opacity=".08" d="M149.67 133.28s5 5.61.88 9.53-9.84 8.59-9.84 8.59l-14.33-2.46 23.29-15.66z"/><path fill="#24285b" d="M140.777 105.233l12.652 2.07-1.079 6.592-12.652-2.07z"/><path fill="#715ac0" d="M103 109.31c7.25-14-9.7-28-22.22-18.46-6.57 5-12.76 12.31-14.73 22.5-4.75 24.61-2 46.71 14.83 53.15s60.68-25.5 60.68-25.5l-5.6-9.23s-38.32 27.41-47.55 8.67c-5.81-11.75 8.32-19.05 14.59-31.13z"/><path opacity=".46" fill="#fff" d="M103 109.31c7.25-14-9.7-28-22.22-18.46-6.57 5-12.76 12.31-14.73 22.5-4.75 24.61-2 46.71 14.83 53.15s60.68-25.5 60.68-25.5l-5.6-9.23s-38.32 27.41-47.55 8.67c-5.81-11.75 8.32-19.05 14.59-31.13z"/><path fill="#f4a28c" d="M137.48 134.31s5.62-5.84 10.86-2.91-6.78 9.64-6.78 9.64l-4.08-6.73z"/><path fill="#24285b" d="M102.76 165.52l-8.09 84 8.22-.05s12.79-62.38 27.06-70.5 15.52-18.87 15.52-18.87l-42.71 5.42z"/><path fill="#24285b" d="M145.47 160.06l13.85 89.41h-7.81s-11.39-57.58-32.24-71.06l26.2-18.35z"/><path fill="#f4a28c" d="M196.46 104.08s-.95-9.93 4.61-9.28 2.31 11.08 2.31 11.08l-6.92-1.8z"/><path fill="#ffd200" d="M186.4 80.573l5.52-3.547 10.324 16.06-5.518 3.548z"/><path opacity=".08" d="M186.4 80.573l5.52-3.547 10.324 16.06-5.518 3.548z"/><path fill="#24285b" d="M192.484 91.472l8.479-5.507 13.382 20.606-8.48 5.507z"/><path fill="#ffd200" d="M166.76 43.88a21.55 21.55 0 1029.81 6.34 21.55 21.55 0 00-29.81-6.34zm20 30.84a15.22 15.22 0 114.48-21.06 15.21 15.21 0 01-4.46 21.06h-.02z"/><path stroke-width="5" stroke-linejoin="round" stroke-linecap="round" stroke="#fff" fill="none" d="M172.62 63.22l4.75 5.56 6.75-12.01"/></g></svg>