<svg width="250" height="289" xmlns="http://www.w3.org/2000/svg">

 <g>
  <title>background</title>
  <rect fill="none" id="canvas_background" height="291" width="252" y="-1" x="-1"/>
 </g>
 <g>
  <title>Layer 1</title>
  <path id="svg_22" fill="#ffd200" d="m156.32,249.19s2.15,3.46 5.59,3s5,2.68 2.18,4.19s-11.53,-0.71 -11.53,-0.71l-1.05,-6.26l4.81,-0.22z"/>
  <path id="svg_23" fill="#ffd200" d="m98.08,249.19s-2.15,3.46 -5.59,3s-5,2.68 -2.18,4.19s11.53,-0.71 11.53,-0.71l1,-6.26l-4.76,-0.22z"/>
  <path id="svg_24" fill="#715ac0" d="m137.48,82s18.92,4.42 23,24.79s4.35,38.29 15.46,38.91s19.15,-42 19.15,-42l8.33,2.16s-8.63,92.63 -53.71,49.4s-12.23,-73.26 -12.23,-73.26z"/>
  <path id="svg_25" opacity="0.46" fill="#fff" d="m137.48,82s18.92,4.42 23,24.79s4.35,38.29 15.46,38.91s19.15,-42 19.15,-42l8.33,2.16s-8.63,92.63 -53.71,49.4s-12.23,-73.26 -12.23,-73.26z"/>
  <path id="svg_28" fill="#f4a28c" d="m119.42,52.58s1.32,6.36 0.74,10.76a3.25,3.25 0 0 1 -3.67,2.8c-2.22,-0.32 -5.11,-1.4 -6.23,-4.72l-2.6,-5.4a5.83,5.83 0 0 1 1.82,-6.48c3.32,-3.05 9.33,-0.87 9.94,3.04z"/>
  <polygon id="svg_30" fill="#f4a28c" points="108.1300048828125,57 107.28999328613281,78.26000213623047 119.02999877929688,77.87999725341797 114.92999267578125,62.56999969482422 108.1300048828125,57 "/>
  <path id="svg_31" fill="#24285b" d="m117.85,53a26.22,26.22 0 0 1 -6,0.25a5.41,5.41 0 0 1 0.7,5.9a4.4,4.4 0 0 1 -5.08,2.37l-0.87,-8.29a6.62,6.62 0 0 1 2.63,-6.23a22.39,22.39 0 0 1 2.61,-1.68c2.27,-1.24 5.95,-0.06 7.89,-1.93a1.57,1.57 0 0 1 2.59,0.73c0.67,2.47 0.69,6.49 -2.55,8.27a5.94,5.94 0 0 1 -1.92,0.61z"/>
  <path id="svg_32" fill="#f4a28c" d="m113.22,58.91s-0.34,-2.47 -2.18,-2.06s-1.37,4 1.2,4l0.98,-1.94z"/>
  <path id="svg_33" fill="#f4a28c" d="m120,56.63l2.09,2.27a1,1 0 0 1 -0.45,1.7l-2.41,0.75l0.77,-4.72z"/>
  <path id="svg_34" opacity="0.31" fill="#ce8172" d="m116,65.88a7.7,7.7 0 0 1 -4,-1.8s0.63,3.84 5.32,7.15l-1.32,-5.35z"/>
  <path id="svg_35" fill="#715ac0" d="m107.29,78.26l11.71,-0.38s31.48,0.5 33.44,23.44s-11.47,40.84 -7,58.74l-42.71,5.46s-69.99,-70.35 4.56,-87.26z"/>
  <path id="svg_36" opacity="0.08" d="m101.69,93.74s14.45,11.57 4.84,32.3s-3.68,27.32 10.72,23.49s20.23,-19.41 20.23,-19.41l7.08,21.88a29.19,29.19 0 0 0 0.91,8l-42.71,5.46l-1.55,-1.62l-19.34,-27.2l19.82,-42.9z"/>
  <rect id="svg_37" fill="#ffd200" transform="rotate(9.289999961853027 -102.65000152587893,-53.1100006103515) " height="42.86" width="31.69" y="66.57" x="153.83"/>
  <path id="svg_38" opacity="0.08" d="m149.67,133.28s5,5.61 0.88,9.53s-9.84,8.59 -9.84,8.59l-14.33,-2.46l23.29,-15.66z"/>
  <rect id="svg_39" fill="#24285b" transform="rotate(9.289999961853027 -105.93000030517582,-53.900001525878906) " height="6.68" width="12.82" y="63.32" x="163.23"/>
  <path id="svg_40" fill="#715ac0" d="m103,109.31c7.25,-14 -9.7,-28 -22.22,-18.46c-6.57,5 -12.76,12.31 -14.73,22.5c-4.75,24.61 -2,46.71 14.83,53.15s60.68,-25.5 60.68,-25.5l-5.6,-9.23s-38.32,27.41 -47.55,8.67c-5.81,-11.75 8.32,-19.05 14.59,-31.13z"/>
  <path id="svg_41" opacity="0.46" fill="#fff" d="m103,109.31c7.25,-14 -9.7,-28 -22.22,-18.46c-6.57,5 -12.76,12.31 -14.73,22.5c-4.75,24.61 -2,46.71 14.83,53.15s60.68,-25.5 60.68,-25.5l-5.6,-9.23s-38.32,27.41 -47.55,8.67c-5.81,-11.75 8.32,-19.05 14.59,-31.13z"/>
  <path id="svg_42" fill="#f4a28c" d="m137.48,134.31s5.62,-5.84 10.86,-2.91s-6.78,9.64 -6.78,9.64l-4.08,-6.73z"/>
  <path id="svg_43" fill="#24285b" d="m102.76,165.52l-8.09,84l8.22,-0.05s12.79,-62.38 27.06,-70.5s15.52,-18.87 15.52,-18.87l-42.71,5.42z"/>
  <path id="svg_44" fill="#24285b" d="m145.47,160.06l13.85,89.41l-7.81,0s-11.39,-57.58 -32.24,-71.06l26.2,-18.35z"/>
  <path id="svg_45" fill="#f4a28c" d="m196.46,104.08s-0.95,-9.93 4.61,-9.28s2.31,11.08 2.31,11.08l-6.92,-1.8z"/>
  <rect id="svg_46" fill="#ffd200" transform="matrix(0.84,-0.54,0.54,0.84,-0.24,191.62) " height="19.12" width="6.57" y="7.52846" x="217.35242"/>
  <rect id="svg_47" opacity="0.08" transform="matrix(0.84,-0.54,0.54,0.84,-0.24,191.62) " height="19.12" width="6.57" y="7.52846" x="217.35242"/>
  <rect id="svg_48" fill="#24285b" transform="rotate(-33 -135.30999755859372,187.7899932861328) " height="24.57" width="10.11" y="285.53999" x="192.06"/>
  <path id="svg_49" fill="#ffd200" d="m166.76,43.88a21.55,21.55 0 1 0 29.81,6.34a21.55,21.55 0 0 0 -29.81,-6.34zm20,30.84a15.22,15.22 0 1 1 4.48,-21.06a15.21,15.21 0 0 1 -4.46,21.06l-0.02,0z"/>
  <polyline id="svg_50" stroke-width="5" stroke-linejoin="round" stroke-linecap="round" stroke="#ffffff" fill="none" points="172.6199951171875,63.220001220703125 177.3699951171875,68.77999877929688 184.1199951171875,56.769996643066406 "/>
 </g>
</svg>