<svg id="4eea1ae6-5e32-40ef-85be-39d849886f06" data-name="Layer 1" xmlns="http://www.w3.org/2000/svg" xmlns:xlink="http://www.w3.org/1999/xlink" width="873.79" height="740.57" viewBox="0 0 873.79 740.57" style=""><defs><linearGradient id="28f33bb1-3e6d-484b-8ded-bad4b26ea843" x1="690.86" y1="478.35" x2="690.86" y2="70" gradientUnits="userSpaceOnUse"><stop offset="0" stop-color="gray" stop-opacity="0.25"></stop><stop offset="0.54" stop-color="gray" stop-opacity="0.12"></stop><stop offset="1" stop-color="gray" stop-opacity="0.1"></stop></linearGradient><linearGradient id="bbcc52f0-cf83-4fe3-8c9e-c71348f6c3ef" x1="817.66" y1="176.95" x2="817.66" y2="105.63" xlink:href="#28f33bb1-3e6d-484b-8ded-bad4b26ea843"></linearGradient><linearGradient id="a4718631-6639-4577-8a3c-c71be39eb5f6" x1="817.66" y1="309.58" x2="817.66" y2="238.27" xlink:href="#28f33bb1-3e6d-484b-8ded-bad4b26ea843"></linearGradient><linearGradient id="e7e3e382-488e-4923-ae42-61d63b76ac5f" x1="817.66" y1="441.33" x2="817.66" y2="370.02" xlink:href="#28f33bb1-3e6d-484b-8ded-bad4b26ea843"></linearGradient><linearGradient id="3b855c7b-c326-4e86-8f18-01df42ba4311" x1="396.11" y1="788.96" x2="396.11" y2="547.06" gradientTransform="translate(0.01 -0.01)" xlink:href="#28f33bb1-3e6d-484b-8ded-bad4b26ea843"></linearGradient><linearGradient id="48ac54b8-ff6b-484d-9b70-d49eb1fb0324" x1="246.98" y1="374.4" x2="246.98" y2="249.5" gradientTransform="translate(0.01 -0.01)" xlink:href="#28f33bb1-3e6d-484b-8ded-bad4b26ea843"></linearGradient><linearGradient id="de8733bd-ea48-4a82-8468-795d85a03869" x1="359.21" y1="674.95" x2="359.21" y2="188.22" gradientTransform="translate(-163.09 -79.23)" xlink:href="#28f33bb1-3e6d-484b-8ded-bad4b26ea843"></linearGradient><linearGradient id="b6f39420-ab5d-4158-b296-45c146931e01" x1="510.05" y1="629.56" x2="510.05" y2="397.67" gradientTransform="translate(0.01 -0.01)" xlink:href="#28f33bb1-3e6d-484b-8ded-bad4b26ea843"></linearGradient><linearGradient id="e0dd915e-f30f-4d18-88c2-53d223394458" x1="436.5" y1="819.79" x2="436.5" y2="762.08" gradientTransform="translate(-163.09 -79.23)" xlink:href="#28f33bb1-3e6d-484b-8ded-bad4b26ea843"></linearGradient><linearGradient id="d1399af4-57ef-4ae9-86c3-f598ea04d411" x1="226.52" y1="546.99" x2="226.52" y2="443.79" gradientTransform="translate(0.01 -0.01)" xlink:href="#28f33bb1-3e6d-484b-8ded-bad4b26ea843"></linearGradient><linearGradient id="4a4958f4-37fa-4130-9aba-cf91683c116e" x1="222.5" y1="632.54" x2="222.5" y2="540.94" gradientTransform="translate(0.01 -0.01)" xlink:href="#28f33bb1-3e6d-484b-8ded-bad4b26ea843"></linearGradient><linearGradient id="89ac17f5-770b-461c-9865-cca003b4417d" x1="196.1" y1="427.59" x2="196.1" y2="277.14" xlink:href="#28f33bb1-3e6d-484b-8ded-bad4b26ea843"></linearGradient><linearGradient id="aef3d74b-62ea-4515-b248-bc09651b6b12" x1="234.19" y1="462.07" x2="234.19" y2="347.46" gradientTransform="translate(0.01 -0.01)" xlink:href="#28f33bb1-3e6d-484b-8ded-bad4b26ea843"></linearGradient></defs><title>cloud sync</title><g opacity="0.8"><path width="365.87" height="408.35" fill="url(#28f33bb1-3e6d-484b-8ded-bad4b26ea843)" d="M507.92 70 L873.79 70 L873.79 478.35 L507.92 478.35 Z" class="SyBUQvnc_0"></path></g><path width="353.77" height="126.82" fill="#fff" d="M513.97 342.63 L867.74 342.63 L867.74 469.45 L513.97 469.45 Z" class="SyBUQvnc_1"></path><path width="13.71" height="64.98" fill="#64ffda" d="M543.01 372.72 L556.72 372.72 L556.72 437.70000000000005 L543.01 437.70000000000005 Z" class="SyBUQvnc_2"></path><g opacity="0.7"><path width="13.71" height="64.98" fill="#64ffda" d="M570.07 372.72 L583.7800000000001 372.72 L583.7800000000001 437.70000000000005 L570.07 437.70000000000005 Z" class="SyBUQvnc_3"></path></g><g opacity="0.6"><path width="13.71" height="64.98" fill="#64ffda" d="M597.13 372.72 L610.84 372.72 L610.84 437.70000000000005 L597.13 437.70000000000005 Z" class="SyBUQvnc_4"></path></g><g opacity="0.5"><path width="13.71" height="64.98" fill="#64ffda" d="M624.2 372.72 L637.9100000000001 372.72 L637.9100000000001 437.70000000000005 L624.2 437.70000000000005 Z" class="SyBUQvnc_5"></path></g><g opacity="0.5"><path width="13.71" height="64.98" fill="#64ffda" d="M651.26 372.72 L664.97 372.72 L664.97 437.70000000000005 L651.26 437.70000000000005 Z" class="SyBUQvnc_6"></path></g><g opacity="0.4"><path width="13.71" height="64.98" fill="#64ffda" d="M678.33 372.72 L692.0400000000001 372.72 L692.0400000000001 437.70000000000005 L678.33 437.70000000000005 Z" class="SyBUQvnc_7"></path></g><g opacity="0.3"><path width="13.71" height="64.98" fill="#64ffda" d="M705.39 372.72 L719.1 372.72 L719.1 437.70000000000005 L705.39 437.70000000000005 Z" class="SyBUQvnc_8"></path></g><path fill="#715ac0" d="M784.5799999999999,404.79A33.08,33.08 0,1,1 850.74,404.79A33.08,33.08 0,1,1 784.5799999999999,404.79" class="SyBUQvnc_9"></path><path width="353.77" height="126.82" fill="#fff" d="M513.97 210.88 L867.74 210.88 L867.74 337.7 L513.97 337.7 Z" class="SyBUQvnc_10"></path><path width="13.71" height="64.98" fill="#64ffda" d="M543.01 240.96 L556.72 240.96 L556.72 305.94 L543.01 305.94 Z" class="SyBUQvnc_11"></path><g opacity="0.7"><path width="13.71" height="64.98" fill="#64ffda" d="M570.07 240.96 L583.7800000000001 240.96 L583.7800000000001 305.94 L570.07 305.94 Z" class="SyBUQvnc_12"></path></g><g opacity="0.6"><path width="13.71" height="64.98" fill="#64ffda" d="M597.13 240.96 L610.84 240.96 L610.84 305.94 L597.13 305.94 Z" class="SyBUQvnc_13"></path></g><g opacity="0.5"><path width="13.71" height="64.98" fill="#64ffda" d="M624.2 240.96 L637.9100000000001 240.96 L637.9100000000001 305.94 L624.2 305.94 Z" class="SyBUQvnc_14"></path></g><g opacity="0.5"><path width="13.71" height="64.98" fill="#64ffda" d="M651.26 240.96 L664.97 240.96 L664.97 305.94 L651.26 305.94 Z" class="SyBUQvnc_15"></path></g><g opacity="0.4"><path width="13.71" height="64.98" fill="#64ffda" d="M678.33 240.96 L692.0400000000001 240.96 L692.0400000000001 305.94 L678.33 305.94 Z" class="SyBUQvnc_16"></path></g><g opacity="0.3"><path width="13.71" height="64.98" fill="#64ffda" d="M705.39 240.96 L719.1 240.96 L719.1 305.94 L705.39 305.94 Z" class="SyBUQvnc_17"></path></g><path fill="#715ac0" d="M784.5799999999999,273.04A33.08,33.08 0,1,1 850.74,273.04A33.08,33.08 0,1,1 784.5799999999999,273.04" class="SyBUQvnc_18"></path><path width="353.77" height="126.82" fill="#fff" d="M513.97 79.13 L867.74 79.13 L867.74 205.95 L513.97 205.95 Z" class="SyBUQvnc_19"></path><path width="13.71" height="64.98" fill="#64ffda" d="M543.01 109.21 L556.72 109.21 L556.72 174.19 L543.01 174.19 Z" class="SyBUQvnc_20"></path><g opacity="0.7"><path width="13.71" height="64.98" fill="#64ffda" d="M570.07 109.21 L583.7800000000001 109.21 L583.7800000000001 174.19 L570.07 174.19 Z" class="SyBUQvnc_21"></path></g><g opacity="0.6"><path width="13.71" height="64.98" fill="#64ffda" d="M597.13 109.21 L610.84 109.21 L610.84 174.19 L597.13 174.19 Z" class="SyBUQvnc_22"></path></g><g opacity="0.5"><path width="13.71" height="64.98" fill="#64ffda" d="M624.2 109.21 L637.9100000000001 109.21 L637.9100000000001 174.19 L624.2 174.19 Z" class="SyBUQvnc_23"></path></g><g opacity="0.5"><path width="13.71" height="64.98" fill="#64ffda" d="M651.26 109.21 L664.97 109.21 L664.97 174.19 L651.26 174.19 Z" class="SyBUQvnc_24"></path></g><g opacity="0.4"><path width="13.71" height="64.98" fill="#64ffda" d="M678.33 109.21 L692.0400000000001 109.21 L692.0400000000001 174.19 L678.33 174.19 Z" class="SyBUQvnc_25"></path></g><g opacity="0.3"><path width="13.71" height="64.98" fill="#64ffda" d="M705.39 109.21 L719.1 109.21 L719.1 174.19 L705.39 174.19 Z" class="SyBUQvnc_26"></path></g><path fill="url(#bbcc52f0-cf83-4fe3-8c9e-c71348f6c3ef)" d="M782,141.29A35.66,35.66 0,1,1 853.3199999999999,141.29A35.66,35.66 0,1,1 782,141.29" class="SyBUQvnc_27"></path><path fill="url(#a4718631-6639-4577-8a3c-c71be39eb5f6)" d="M782,273.93A35.66,35.66 0,1,1 853.3199999999999,273.93A35.66,35.66 0,1,1 782,273.93" class="SyBUQvnc_28"></path><path fill="url(#e7e3e382-488e-4923-ae42-61d63b76ac5f)" d="M782,405.67A35.66,35.66 0,1,1 853.3199999999999,405.67A35.66,35.66 0,1,1 782,405.67" class="SyBUQvnc_29"></path><path fill="#715ac0" d="M784.5799999999999,141.29A33.08,33.08 0,1,1 850.74,141.29A33.08,33.08 0,1,1 784.5799999999999,141.29" class="SyBUQvnc_30"></path><path d="M567.81,615a67.92,67.92,0,0,0-134.65-12.66l-208.75-5.66,2.29,35.87s-29.76,68.68,126.67,87V789H534.23V673.57A67.88,67.88,0,0,0,567.81,615Z" transform="translate(-163.1 -79.21)" fill="url(#3b855c7b-c326-4e86-8f18-01df42ba4311)" class="SyBUQvnc_31"></path><path d="M233.87,634s-28.5,65.77,121.32,83.32v66.51H528.39V607.71l-296.72-8Z" transform="translate(-163.1 -79.21)" fill="#fda57d" class="SyBUQvnc_32"></path><path d="M320.43,359.55h0a31.93,31.93,0,0,1-43.91,10l-93-61.28a31.93,31.93,0,0,1-10-43.91h0a31.93,31.93,0,0,1,43.91-10l93,61.28A31.93,31.93,0,0,1,320.43,359.55Z" transform="translate(-163.1 -79.21)" fill="url(#48ac54b8-ff6b-484d-9b70-d49eb1fb0324)" class="SyBUQvnc_33"></path><path d="M315.26,356.2h0a29.69,29.69,0,0,1-40.82,9.28l-86.45-57a29.69,29.69,0,0,1-9.28-40.82h0a29.69,29.69,0,0,1,40.82-9.28l86.45,57A29.69,29.69,0,0,1,315.26,356.2Z" transform="translate(-163.1 -79.21)" fill="#fda57d" class="SyBUQvnc_34"></path><path fill="#fda57d" d="M267.35999999999996,538A65.04,65.04 0,1,1 397.44,538A65.04,65.04 0,1,1 267.35999999999996,538" class="SyBUQvnc_35"></path><path width="269.65" height="486.73" fill="url(#de8733bd-ea48-4a82-8468-795d85a03869)" d="M 71.27000000000001,109 L 320.91999999999996,109 A 10,10,0,0,1,330.91999999999996,119 L 330.91999999999996,585.73 A 10,10,0,0,1,320.91999999999996,595.73 L 71.27000000000001,595.73 A 10,10,0,0,1,61.27,585.73 L 61.27,119 A 10,10,0,0,1,71.27000000000001,109" class="SyBUQvnc_36"></path><path width="262.37" height="473.58" fill="#fff" d="M 77.92,115.58 L 314.29,115.58 A 13,13,0,0,1,327.29,128.57999999999998 L 327.29,576.16 A 13,13,0,0,1,314.29,589.16 L 77.92,589.16 A 13,13,0,0,1,64.92,576.16 L 64.92,128.57999999999998 A 13,13,0,0,1,77.92,115.58" class="SyBUQvnc_37"></path><path d="M425.12,206.67a21.27,21.27,0,0,1-21,18.09H313.54a21.27,21.27,0,0,1-21-18.09h-48a10,10,0,0,0-10,10v429.9a10,10,0,0,0,10,10H473.84a10,10,0,0,0,10-10V216.63a10,10,0,0,0-10-10Z" transform="translate(-163.1 -79.21)" fill="#715ac0" class="SyBUQvnc_38"></path><path width="58.47" height="3.65" fill="#dbdbdb" d="M 168.24,133.12 L 224.71,133.12 A 1,1,0,0,1,225.71,134.12 L 225.71,135.77 A 1,1,0,0,1,224.71,136.77 L 168.24,136.77 A 1,1,0,0,1,167.24,135.77 L 167.24,134.12 A 1,1,0,0,1,168.24,133.12" class="SyBUQvnc_39"></path><path fill="#dbdbdb" d="M235.94,134.58A2.19,2.19 0,1,1 240.32,134.58A2.19,2.19 0,1,1 235.94,134.58" class="SyBUQvnc_40"></path><path d="M537.55,628.68h0c-18.87,4.36-31.83-7.94-36.2-26.82L458,440.82a35.32,35.32,0,0,1,26.38-42.25h0A35.32,35.32,0,0,1,526.61,425L562,590.17C566.37,609,556.42,624.32,537.55,628.68Z" transform="translate(-163.1 -79.21)" fill="url(#b6f39420-ab5d-4158-b296-45c146931e01)" class="SyBUQvnc_41"></path><path width="59.2" height="236.37" transform="translate(-267.45 49.69) rotate(-13.01)" fill="#fda57d" d="M 512.27,403.64 L 513.47,403.64 A 29,29,0,0,1,542.47,432.64 L 542.47,611.01 A 29,29,0,0,1,513.47,640.01 L 512.27,640.01 A 29,29,0,0,1,483.27,611.01 L 483.27,432.64 A 29,29,0,0,1,512.27,403.64" class="SyBUQvnc_42"></path><path width="247.56" height="57.71" fill="url(#e0dd915e-f30f-4d18-88c2-53d223394458)" d="M149.61 682.86 L397.17 682.86 L397.17 740.57 L149.61 740.57 Z" class="SyBUQvnc_43"></path><path width="234.18" height="45.16" fill="#4d8af0" d="M156.3 689.55 L390.48 689.55 L390.48 734.7099999999999 L156.3 734.7099999999999 Z" class="SyBUQvnc_44"></path><path d="M284.32,532.32h0a31.55,31.55,0,0,1-43.38,9.86l-62.36-40.35a31.55,31.55,0,0,1-9.86-43.38h0a31.55,31.55,0,0,1,43.38-9.86l62.36,40.35A31.55,31.55,0,0,1,284.32,532.32Z" transform="translate(-163.1 -79.21)" fill="url(#d1399af4-57ef-4ae9-86c3-f598ea04d411)" class="SyBUQvnc_45"></path><path d="M268.68,617.74h0a31.83,31.83,0,0,1-43.77,9.95l-38.63-28.18a31.83,31.83,0,0,1-9.95-43.77h0a31.83,31.83,0,0,1,43.77-9.95L258.73,574A31.83,31.83,0,0,1,268.68,617.74Z" transform="translate(-163.1 -79.21)" fill="url(#4a4958f4-37fa-4130-9aba-cf91683c116e)" class="SyBUQvnc_46"></path><g opacity="0.5"><path fill="url(#89ac17f5-770b-461c-9865-cca003b4417d)" d="M120.88,352.37A75.22,75.22 0,1,1 271.32,352.37A75.22,75.22 0,1,1 120.88,352.37" class="SyBUQvnc_47"></path></g><path fill="#69f0ae" d="M125.3,352.37A70.8,70.8 0,1,1 266.9,352.37A70.8,70.8 0,1,1 125.3,352.37" class="SyBUQvnc_48"></path><path fill="#fff" d="M165.37,342.93L191.92,367.26L229.53,311.95L242.81,323.01L191.92,389.39L154.31,347.35L165.37,342.93Z" class="SyBUQvnc_49"></path><path d="M265.56,615.64h0a29.69,29.69,0,0,1-40.82,9.28l-36-26.27a29.69,29.69,0,0,1-9.28-40.82h0a29.69,29.69,0,0,1,40.82-9.28l36,26.27A29.69,29.69,0,0,1,265.56,615.64Z" transform="translate(-163.1 -79.21)" fill="#fda57d" class="SyBUQvnc_50"></path><path d="M280.91,530.14h0a29.69,29.69,0,0,1-40.82,9.28l-58.68-38a29.69,29.69,0,0,1-9.28-40.82h0A29.69,29.69,0,0,1,213,451.35l58.68,38A29.69,29.69,0,0,1,280.91,530.14Z" transform="translate(-163.1 -79.21)" fill="#fda57d" class="SyBUQvnc_51"></path><path d="M300.46,447.33h0a31.69,31.69,0,0,1-43.58,9.91l-79-51.46a31.69,31.69,0,0,1-9.91-43.58h0a31.69,31.69,0,0,1,43.58-9.91l79,51.46A31.69,31.69,0,0,1,300.46,447.33Z" transform="translate(-163.1 -79.21)" fill="url(#aef3d74b-62ea-4515-b248-bc09651b6b12)" class="SyBUQvnc_52"></path><path d="M296.26,444.63h0a29.69,29.69,0,0,1-40.82,9.28l-74-48.2a29.69,29.69,0,0,1-9.28-40.82h0A29.69,29.69,0,0,1,213,355.61l74,48.2A29.69,29.69,0,0,1,296.26,444.63Z" transform="translate(-163.1 -79.21)" fill="#fda57d" class="SyBUQvnc_53"></path><path fill="none" stroke="#3ad29f" stroke-miterlimit="10" stroke-width="2" stroke-dasharray="12" d="M207.36,91L207.36,1L603.36,1L603.36,55" class="SyBUQvnc_54"></path><path fill="none" stroke="#3ad29f" stroke-miterlimit="10" stroke-width="2" stroke-dasharray="12" d="M441.36,586L612.36,586L612.36,496" class="SyBUQvnc_55"></path><style data-made-with="vivus-instant">.SyBUQvnc_0{stroke-dasharray:1549 1551;stroke-dashoffset:1550;animation:SyBUQvnc_draw_0 7200ms linear 0ms infinite,SyBUQvnc_fade 7200ms linear 0ms infinite;}.SyBUQvnc_1{stroke-dasharray:962 964;stroke-dashoffset:963;animation:SyBUQvnc_draw_1 7200ms linear 0ms infinite,SyBUQvnc_fade 7200ms linear 0ms infinite;}.SyBUQvnc_2{stroke-dasharray:158 160;stroke-dashoffset:159;animation:SyBUQvnc_draw_2 7200ms linear 0ms infinite,SyBUQvnc_fade 7200ms linear 0ms infinite;}.SyBUQvnc_3{stroke-dasharray:158 160;stroke-dashoffset:159;animation:SyBUQvnc_draw_3 7200ms linear 0ms infinite,SyBUQvnc_fade 7200ms linear 0ms infinite;}.SyBUQvnc_4{stroke-dasharray:158 160;stroke-dashoffset:159;animation:SyBUQvnc_draw_4 7200ms linear 0ms infinite,SyBUQvnc_fade 7200ms linear 0ms infinite;}.SyBUQvnc_5{stroke-dasharray:158 160;stroke-dashoffset:159;animation:SyBUQvnc_draw_5 7200ms linear 0ms infinite,SyBUQvnc_fade 7200ms linear 0ms infinite;}.SyBUQvnc_6{stroke-dasharray:158 160;stroke-dashoffset:159;animation:SyBUQvnc_draw_6 7200ms linear 0ms infinite,SyBUQvnc_fade 7200ms linear 0ms infinite;}.SyBUQvnc_7{stroke-dasharray:158 160;stroke-dashoffset:159;animation:SyBUQvnc_draw_7 7200ms linear 0ms infinite,SyBUQvnc_fade 7200ms linear 0ms infinite;}.SyBUQvnc_8{stroke-dasharray:158 160;stroke-dashoffset:159;animation:SyBUQvnc_draw_8 7200ms linear 0ms infinite,SyBUQvnc_fade 7200ms linear 0ms infinite;}.SyBUQvnc_9{stroke-dasharray:209 211;stroke-dashoffset:210;animation:SyBUQvnc_draw_9 7200ms linear 0ms infinite,SyBUQvnc_fade 7200ms linear 0ms infinite;}.SyBUQvnc_10{stroke-dasharray:962 964;stroke-dashoffset:963;animation:SyBUQvnc_draw_10 7200ms linear 0ms infinite,SyBUQvnc_fade 7200ms linear 0ms infinite;}.SyBUQvnc_11{stroke-dasharray:158 160;stroke-dashoffset:159;animation:SyBUQvnc_draw_11 7200ms linear 0ms infinite,SyBUQvnc_fade 7200ms linear 0ms infinite;}.SyBUQvnc_12{stroke-dasharray:158 160;stroke-dashoffset:159;animation:SyBUQvnc_draw_12 7200ms linear 0ms infinite,SyBUQvnc_fade 7200ms linear 0ms infinite;}.SyBUQvnc_13{stroke-dasharray:158 160;stroke-dashoffset:159;animation:SyBUQvnc_draw_13 7200ms linear 0ms infinite,SyBUQvnc_fade 7200ms linear 0ms infinite;}.SyBUQvnc_14{stroke-dasharray:158 160;stroke-dashoffset:159;animation:SyBUQvnc_draw_14 7200ms linear 0ms infinite,SyBUQvnc_fade 7200ms linear 0ms infinite;}.SyBUQvnc_15{stroke-dasharray:158 160;stroke-dashoffset:159;animation:SyBUQvnc_draw_15 7200ms linear 0ms infinite,SyBUQvnc_fade 7200ms linear 0ms infinite;}.SyBUQvnc_16{stroke-dasharray:158 160;stroke-dashoffset:159;animation:SyBUQvnc_draw_16 7200ms linear 0ms infinite,SyBUQvnc_fade 7200ms linear 0ms infinite;}.SyBUQvnc_17{stroke-dasharray:158 160;stroke-dashoffset:159;animation:SyBUQvnc_draw_17 7200ms linear 0ms infinite,SyBUQvnc_fade 7200ms linear 0ms infinite;}.SyBUQvnc_18{stroke-dasharray:209 211;stroke-dashoffset:210;animation:SyBUQvnc_draw_18 7200ms linear 0ms infinite,SyBUQvnc_fade 7200ms linear 0ms infinite;}.SyBUQvnc_19{stroke-dasharray:962 964;stroke-dashoffset:963;animation:SyBUQvnc_draw_19 7200ms linear 0ms infinite,SyBUQvnc_fade 7200ms linear 0ms infinite;}.SyBUQvnc_20{stroke-dasharray:158 160;stroke-dashoffset:159;animation:SyBUQvnc_draw_20 7200ms linear 0ms infinite,SyBUQvnc_fade 7200ms linear 0ms infinite;}.SyBUQvnc_21{stroke-dasharray:158 160;stroke-dashoffset:159;animation:SyBUQvnc_draw_21 7200ms linear 0ms infinite,SyBUQvnc_fade 7200ms linear 0ms infinite;}.SyBUQvnc_22{stroke-dasharray:158 160;stroke-dashoffset:159;animation:SyBUQvnc_draw_22 7200ms linear 0ms infinite,SyBUQvnc_fade 7200ms linear 0ms infinite;}.SyBUQvnc_23{stroke-dasharray:158 160;stroke-dashoffset:159;animation:SyBUQvnc_draw_23 7200ms linear 0ms infinite,SyBUQvnc_fade 7200ms linear 0ms infinite;}.SyBUQvnc_24{stroke-dasharray:158 160;stroke-dashoffset:159;animation:SyBUQvnc_draw_24 7200ms linear 0ms infinite,SyBUQvnc_fade 7200ms linear 0ms infinite;}.SyBUQvnc_25{stroke-dasharray:158 160;stroke-dashoffset:159;animation:SyBUQvnc_draw_25 7200ms linear 0ms infinite,SyBUQvnc_fade 7200ms linear 0ms infinite;}.SyBUQvnc_26{stroke-dasharray:158 160;stroke-dashoffset:159;animation:SyBUQvnc_draw_26 7200ms linear 0ms infinite,SyBUQvnc_fade 7200ms linear 0ms infinite;}.SyBUQvnc_27{stroke-dasharray:225 227;stroke-dashoffset:226;animation:SyBUQvnc_draw_27 7200ms linear 0ms infinite,SyBUQvnc_fade 7200ms linear 0ms infinite;}.SyBUQvnc_28{stroke-dasharray:225 227;stroke-dashoffset:226;animation:SyBUQvnc_draw_28 7200ms linear 0ms infinite,SyBUQvnc_fade 7200ms linear 0ms infinite;}.SyBUQvnc_29{stroke-dasharray:225 227;stroke-dashoffset:226;animation:SyBUQvnc_draw_29 7200ms linear 0ms infinite,SyBUQvnc_fade 7200ms linear 0ms infinite;}.SyBUQvnc_30{stroke-dasharray:209 211;stroke-dashoffset:210;animation:SyBUQvnc_draw_30 7200ms linear 0ms infinite,SyBUQvnc_fade 7200ms linear 0ms infinite;}.SyBUQvnc_31{stroke-dasharray:1056 1058;stroke-dashoffset:1057;animation:SyBUQvnc_draw_31 7200ms linear 0ms infinite,SyBUQvnc_fade 7200ms linear 0ms infinite;}.SyBUQvnc_32{stroke-dasharray:914 916;stroke-dashoffset:915;animation:SyBUQvnc_draw_32 7200ms linear 0ms infinite,SyBUQvnc_fade 7200ms linear 0ms infinite;}.SyBUQvnc_33{stroke-dasharray:423 425;stroke-dashoffset:424;animation:SyBUQvnc_draw_33 7200ms linear 0ms infinite,SyBUQvnc_fade 7200ms linear 0ms infinite;}.SyBUQvnc_34{stroke-dasharray:393 395;stroke-dashoffset:394;animation:SyBUQvnc_draw_34 7200ms linear 0ms infinite,SyBUQvnc_fade 7200ms linear 0ms infinite;}.SyBUQvnc_35{stroke-dasharray:409 411;stroke-dashoffset:410;animation:SyBUQvnc_draw_35 7200ms linear 0ms infinite,SyBUQvnc_fade 7200ms linear 0ms infinite;}.SyBUQvnc_36{stroke-dasharray:1496 1498;stroke-dashoffset:1497;animation:SyBUQvnc_draw_36 7200ms linear 0ms infinite,SyBUQvnc_fade 7200ms linear 0ms infinite;}.SyBUQvnc_37{stroke-dasharray:1450 1452;stroke-dashoffset:1451;animation:SyBUQvnc_draw_37 7200ms linear 0ms infinite,SyBUQvnc_fade 7200ms linear 0ms infinite;}.SyBUQvnc_38{stroke-dasharray:1400 1402;stroke-dashoffset:1401;animation:SyBUQvnc_draw_38 7200ms linear 0ms infinite,SyBUQvnc_fade 7200ms linear 0ms infinite;}.SyBUQvnc_39{stroke-dasharray:123 125;stroke-dashoffset:124;animation:SyBUQvnc_draw_39 7200ms linear 0ms infinite,SyBUQvnc_fade 7200ms linear 0ms infinite;}.SyBUQvnc_40{stroke-dasharray:14 16;stroke-dashoffset:15;animation:SyBUQvnc_draw_40 7200ms linear 0ms infinite,SyBUQvnc_fade 7200ms linear 0ms infinite;}.SyBUQvnc_41{stroke-dasharray:549 551;stroke-dashoffset:550;animation:SyBUQvnc_draw_41 7200ms linear 0ms infinite,SyBUQvnc_fade 7200ms linear 0ms infinite;}.SyBUQvnc_42{stroke-dasharray:542 544;stroke-dashoffset:543;animation:SyBUQvnc_draw_42 7200ms linear 0ms infinite,SyBUQvnc_fade 7200ms linear 0ms infinite;}.SyBUQvnc_43{stroke-dasharray:611 613;stroke-dashoffset:612;animation:SyBUQvnc_draw_43 7200ms linear 0ms infinite,SyBUQvnc_fade 7200ms linear 0ms infinite;}.SyBUQvnc_44{stroke-dasharray:559 561;stroke-dashoffset:560;animation:SyBUQvnc_draw_44 7200ms linear 0ms infinite,SyBUQvnc_fade 7200ms linear 0ms infinite;}.SyBUQvnc_45{stroke-dasharray:347 349;stroke-dashoffset:348;animation:SyBUQvnc_draw_45 7200ms linear 0ms infinite,SyBUQvnc_fade 7200ms linear 0ms infinite;}.SyBUQvnc_46{stroke-dasharray:295 297;stroke-dashoffset:296;animation:SyBUQvnc_draw_46 7200ms linear 0ms infinite,SyBUQvnc_fade 7200ms linear 0ms infinite;}.SyBUQvnc_47{stroke-dasharray:473 475;stroke-dashoffset:474;animation:SyBUQvnc_draw_47 7200ms linear 0ms infinite,SyBUQvnc_fade 7200ms linear 0ms infinite;}.SyBUQvnc_48{stroke-dasharray:446 448;stroke-dashoffset:447;animation:SyBUQvnc_draw_48 7200ms linear 0ms infinite,SyBUQvnc_fade 7200ms linear 0ms infinite;}.SyBUQvnc_49{stroke-dasharray:273 275;stroke-dashoffset:274;animation:SyBUQvnc_draw_49 7200ms linear 0ms infinite,SyBUQvnc_fade 7200ms linear 0ms infinite;}.SyBUQvnc_50{stroke-dasharray:275 277;stroke-dashoffset:276;animation:SyBUQvnc_draw_50 7200ms linear 0ms infinite,SyBUQvnc_fade 7200ms linear 0ms infinite;}.SyBUQvnc_51{stroke-dasharray:326 328;stroke-dashoffset:327;animation:SyBUQvnc_draw_51 7200ms linear 0ms infinite,SyBUQvnc_fade 7200ms linear 0ms infinite;}.SyBUQvnc_52{stroke-dasharray:388 390;stroke-dashoffset:389;animation:SyBUQvnc_draw_52 7200ms linear 0ms infinite,SyBUQvnc_fade 7200ms linear 0ms infinite;}.SyBUQvnc_53{stroke-dasharray:363 365;stroke-dashoffset:364;animation:SyBUQvnc_draw_53 7200ms linear 0ms infinite,SyBUQvnc_fade 7200ms linear 0ms infinite;}.SyBUQvnc_54{stroke-dasharray:540 542;stroke-dashoffset:541;animation:SyBUQvnc_draw_54 7200ms linear 0ms infinite,SyBUQvnc_fade 7200ms linear 0ms infinite;}.SyBUQvnc_55{stroke-dasharray:261 263;stroke-dashoffset:262;animation:SyBUQvnc_draw_55 7200ms linear 0ms infinite,SyBUQvnc_fade 7200ms linear 0ms infinite;}@keyframes SyBUQvnc_draw{100%{stroke-dashoffset:0;}}@keyframes SyBUQvnc_fade{0%{stroke-opacity:1;}94.44444444444444%{stroke-opacity:1;}100%{stroke-opacity:0;}}@keyframes SyBUQvnc_draw_0{11.11111111111111%{stroke-dashoffset: 1550}38.88888888888889%{ stroke-dashoffset: 0;}100%{ stroke-dashoffset: 0;}}@keyframes SyBUQvnc_draw_1{11.363636363636363%{stroke-dashoffset: 963}39.14141414141414%{ stroke-dashoffset: 0;}100%{ stroke-dashoffset: 0;}}@keyframes SyBUQvnc_draw_2{11.616161616161616%{stroke-dashoffset: 159}39.3939393939394%{ stroke-dashoffset: 0;}100%{ stroke-dashoffset: 0;}}@keyframes SyBUQvnc_draw_3{11.868686868686869%{stroke-dashoffset: 159}39.64646464646464%{ stroke-dashoffset: 0;}100%{ stroke-dashoffset: 0;}}@keyframes SyBUQvnc_draw_4{12.121212121212121%{stroke-dashoffset: 159}39.8989898989899%{ stroke-dashoffset: 0;}100%{ stroke-dashoffset: 0;}}@keyframes SyBUQvnc_draw_5{12.373737373737374%{stroke-dashoffset: 159}40.151515151515156%{ stroke-dashoffset: 0;}100%{ stroke-dashoffset: 0;}}@keyframes SyBUQvnc_draw_6{12.626262626262626%{stroke-dashoffset: 159}40.4040404040404%{ stroke-dashoffset: 0;}100%{ stroke-dashoffset: 0;}}@keyframes SyBUQvnc_draw_7{12.878787878787879%{stroke-dashoffset: 159}40.656565656565654%{ stroke-dashoffset: 0;}100%{ stroke-dashoffset: 0;}}@keyframes SyBUQvnc_draw_8{13.131313131313133%{stroke-dashoffset: 159}40.909090909090914%{ stroke-dashoffset: 0;}100%{ stroke-dashoffset: 0;}}@keyframes SyBUQvnc_draw_9{13.383838383838384%{stroke-dashoffset: 210}41.16161616161616%{ stroke-dashoffset: 0;}100%{ stroke-dashoffset: 0;}}@keyframes SyBUQvnc_draw_10{13.636363636363638%{stroke-dashoffset: 963}41.41414141414141%{ stroke-dashoffset: 0;}100%{ stroke-dashoffset: 0;}}@keyframes SyBUQvnc_draw_11{13.88888888888889%{stroke-dashoffset: 159}41.66666666666667%{ stroke-dashoffset: 0;}100%{ stroke-dashoffset: 0;}}@keyframes SyBUQvnc_draw_12{14.141414141414144%{stroke-dashoffset: 159}41.91919191919192%{ stroke-dashoffset: 0;}100%{ stroke-dashoffset: 0;}}@keyframes SyBUQvnc_draw_13{14.393939393939394%{stroke-dashoffset: 159}42.17171717171717%{ stroke-dashoffset: 0;}100%{ stroke-dashoffset: 0;}}@keyframes SyBUQvnc_draw_14{14.646464646464647%{stroke-dashoffset: 159}42.42424242424242%{ stroke-dashoffset: 0;}100%{ stroke-dashoffset: 0;}}@keyframes SyBUQvnc_draw_15{14.8989898989899%{stroke-dashoffset: 159}42.67676767676768%{ stroke-dashoffset: 0;}100%{ stroke-dashoffset: 0;}}@keyframes SyBUQvnc_draw_16{15.151515151515152%{stroke-dashoffset: 159}42.92929292929293%{ stroke-dashoffset: 0;}100%{ stroke-dashoffset: 0;}}@keyframes SyBUQvnc_draw_17{15.404040404040403%{stroke-dashoffset: 159}43.18181818181818%{ stroke-dashoffset: 0;}100%{ stroke-dashoffset: 0;}}@keyframes SyBUQvnc_draw_18{15.656565656565657%{stroke-dashoffset: 210}43.43434343434343%{ stroke-dashoffset: 0;}100%{ stroke-dashoffset: 0;}}@keyframes SyBUQvnc_draw_19{15.909090909090908%{stroke-dashoffset: 963}43.686868686868685%{ stroke-dashoffset: 0;}100%{ stroke-dashoffset: 0;}}@keyframes SyBUQvnc_draw_20{16.161616161616163%{stroke-dashoffset: 159}43.939393939393945%{ stroke-dashoffset: 0;}100%{ stroke-dashoffset: 0;}}@keyframes SyBUQvnc_draw_21{16.41414141414142%{stroke-dashoffset: 159}44.19191919191919%{ stroke-dashoffset: 0;}100%{ stroke-dashoffset: 0;}}@keyframes SyBUQvnc_draw_22{16.666666666666664%{stroke-dashoffset: 159}44.44444444444444%{ stroke-dashoffset: 0;}100%{ stroke-dashoffset: 0;}}@keyframes SyBUQvnc_draw_23{16.91919191919192%{stroke-dashoffset: 159}44.696969696969695%{ stroke-dashoffset: 0;}100%{ stroke-dashoffset: 0;}}@keyframes SyBUQvnc_draw_24{17.171717171717173%{stroke-dashoffset: 159}44.94949494949495%{ stroke-dashoffset: 0;}100%{ stroke-dashoffset: 0;}}@keyframes SyBUQvnc_draw_25{17.424242424242422%{stroke-dashoffset: 159}45.2020202020202%{ stroke-dashoffset: 0;}100%{ stroke-dashoffset: 0;}}@keyframes SyBUQvnc_draw_26{17.67676767676768%{stroke-dashoffset: 159}45.45454545454546%{ stroke-dashoffset: 0;}100%{ stroke-dashoffset: 0;}}@keyframes SyBUQvnc_draw_27{17.92929292929293%{stroke-dashoffset: 226}45.707070707070706%{ stroke-dashoffset: 0;}100%{ stroke-dashoffset: 0;}}@keyframes SyBUQvnc_draw_28{18.18181818181818%{stroke-dashoffset: 226}45.95959595959596%{ stroke-dashoffset: 0;}100%{ stroke-dashoffset: 0;}}@keyframes SyBUQvnc_draw_29{18.434343434343436%{stroke-dashoffset: 226}46.21212121212122%{ stroke-dashoffset: 0;}100%{ stroke-dashoffset: 0;}}@keyframes SyBUQvnc_draw_30{18.68686868686869%{stroke-dashoffset: 210}46.464646464646464%{ stroke-dashoffset: 0;}100%{ stroke-dashoffset: 0;}}@keyframes SyBUQvnc_draw_31{18.93939393939394%{stroke-dashoffset: 1057}46.71717171717172%{ stroke-dashoffset: 0;}100%{ stroke-dashoffset: 0;}}@keyframes SyBUQvnc_draw_32{19.191919191919194%{stroke-dashoffset: 915}46.96969696969697%{ stroke-dashoffset: 0;}100%{ stroke-dashoffset: 0;}}@keyframes SyBUQvnc_draw_33{19.444444444444446%{stroke-dashoffset: 424}47.22222222222222%{ stroke-dashoffset: 0;}100%{ stroke-dashoffset: 0;}}@keyframes SyBUQvnc_draw_34{19.6969696969697%{stroke-dashoffset: 394}47.474747474747474%{ stroke-dashoffset: 0;}100%{ stroke-dashoffset: 0;}}@keyframes SyBUQvnc_draw_35{19.94949494949495%{stroke-dashoffset: 410}47.72727272727273%{ stroke-dashoffset: 0;}100%{ stroke-dashoffset: 0;}}@keyframes SyBUQvnc_draw_36{20.2020202020202%{stroke-dashoffset: 1497}47.97979797979798%{ stroke-dashoffset: 0;}100%{ stroke-dashoffset: 0;}}@keyframes SyBUQvnc_draw_37{20.454545454545457%{stroke-dashoffset: 1451}48.23232323232324%{ stroke-dashoffset: 0;}100%{ stroke-dashoffset: 0;}}@keyframes SyBUQvnc_draw_38{20.707070707070706%{stroke-dashoffset: 1401}48.484848484848484%{ stroke-dashoffset: 0;}100%{ stroke-dashoffset: 0;}}@keyframes SyBUQvnc_draw_39{20.95959595959596%{stroke-dashoffset: 124}48.73737373737374%{ stroke-dashoffset: 0;}100%{ stroke-dashoffset: 0;}}@keyframes SyBUQvnc_draw_40{21.212121212121215%{stroke-dashoffset: 15}48.989898989899%{ stroke-dashoffset: 0;}100%{ stroke-dashoffset: 0;}}@keyframes SyBUQvnc_draw_41{21.464646464646464%{stroke-dashoffset: 550}49.24242424242424%{ stroke-dashoffset: 0;}100%{ stroke-dashoffset: 0;}}@keyframes SyBUQvnc_draw_42{21.71717171717172%{stroke-dashoffset: 543}49.494949494949495%{ stroke-dashoffset: 0;}100%{ stroke-dashoffset: 0;}}@keyframes SyBUQvnc_draw_43{21.969696969696972%{stroke-dashoffset: 612}49.747474747474755%{ stroke-dashoffset: 0;}100%{ stroke-dashoffset: 0;}}@keyframes SyBUQvnc_draw_44{22.22222222222222%{stroke-dashoffset: 560}50%{ stroke-dashoffset: 0;}100%{ stroke-dashoffset: 0;}}@keyframes SyBUQvnc_draw_45{22.474747474747474%{stroke-dashoffset: 348}50.252525252525245%{ stroke-dashoffset: 0;}100%{ stroke-dashoffset: 0;}}@keyframes SyBUQvnc_draw_46{22.72727272727273%{stroke-dashoffset: 296}50.505050505050505%{ stroke-dashoffset: 0;}100%{ stroke-dashoffset: 0;}}@keyframes SyBUQvnc_draw_47{22.97979797979798%{stroke-dashoffset: 474}50.75757575757576%{ stroke-dashoffset: 0;}100%{ stroke-dashoffset: 0;}}@keyframes SyBUQvnc_draw_48{23.232323232323232%{stroke-dashoffset: 447}51.01010101010102%{ stroke-dashoffset: 0;}100%{ stroke-dashoffset: 0;}}@keyframes SyBUQvnc_draw_49{23.484848484848484%{stroke-dashoffset: 274}51.26262626262626%{ stroke-dashoffset: 0;}100%{ stroke-dashoffset: 0;}}@keyframes SyBUQvnc_draw_50{23.737373737373737%{stroke-dashoffset: 276}51.515151515151516%{ stroke-dashoffset: 0;}100%{ stroke-dashoffset: 0;}}@keyframes SyBUQvnc_draw_51{23.989898989898993%{stroke-dashoffset: 327}51.767676767676775%{ stroke-dashoffset: 0;}100%{ stroke-dashoffset: 0;}}@keyframes SyBUQvnc_draw_52{24.242424242424242%{stroke-dashoffset: 389}52.02020202020202%{ stroke-dashoffset: 0;}100%{ stroke-dashoffset: 0;}}@keyframes SyBUQvnc_draw_53{24.4949494949495%{stroke-dashoffset: 364}52.27272727272728%{ stroke-dashoffset: 0;}100%{ stroke-dashoffset: 0;}}@keyframes SyBUQvnc_draw_54{24.747474747474747%{stroke-dashoffset: 541}52.52525252525253%{ stroke-dashoffset: 0;}100%{ stroke-dashoffset: 0;}}@keyframes SyBUQvnc_draw_55{25%{stroke-dashoffset: 262}52.77777777777778%{ stroke-dashoffset: 0;}100%{ stroke-dashoffset: 0;}}</style></svg>