<svg width="731" height="210" xmlns="http://www.w3.org/2000/svg"><defs><filter id="a" x="-50%" y="-50%" width="200%" height="200%"><feGaussianBlur/></filter></defs><path fill="none" d="M-1-1h733v212H-1z"/><g transform="rotate(-1 103.636 105)" stroke="null" filter="url(#a)" shape-rendering="geometricPrecision"><path fill="#fff" d="M202.271 105c0 54.199-44.16 98.136-98.635 98.136S5 159.199 5 105 49.16 6.864 103.636 6.864 202.27 50.801 202.27 105zM92.227 156.962l73.18-72.81a6.309 6.309 0 000-8.954l-8.999-8.954a6.386 6.386 0 00-9 0l-59.681 59.38L59.862 97.9a6.387 6.387 0 00-9 0l-8.999 8.953a6.309 6.309 0 000 8.954l41.364 41.154a6.387 6.387 0 009 0z" stroke="none"/></g><text fill="#fff" stroke-width="0" x="269.617" y="141.5" font-size="105" font-family="Oswald, sans-serif">valide.me</text></svg>